<svg width="309" height="282" viewBox="0 0 309 282" fill="none" xmlns="http://www.w3.org/2000/svg">
<path d="M57.9112 163.406C57.9728 162.174 58.5272 160.942 59.2664 160.018C60.0056 159.032 61.0528 158.293 62.2232 157.923C63.4552 157.554 64.872 157.738 65.9808 158.416C66.6584 158.786 67.2128 159.402 67.5824 160.018C67.8904 159.402 68.3216 158.847 68.876 158.416C69.9232 157.615 71.2784 157.246 72.572 157.492C73.804 157.677 74.9128 158.354 75.7752 159.217C76.6376 160.079 77.3152 161.188 77.5616 162.42C77.808 163.96 77.6232 165.685 76.884 167.04C76.1448 168.518 74.7896 169.75 73.4344 170.674C71.1552 172.214 68.1368 174.247 68.1368 174.247C68.1368 174.247 65.3648 172.399 62.9008 171.167C61.4224 170.428 60.0056 169.319 59.0816 167.964C58.2192 166.609 57.788 164.946 57.9112 163.406Z" fill="#EBEBEB"/>
<path d="M229.59 95.3376C229.652 94.1056 230.206 92.8736 230.946 91.9496C231.685 90.964 232.732 90.2248 233.902 89.8552C235.134 89.4856 236.551 89.6704 237.66 90.348C238.338 90.7176 238.892 91.3336 239.262 91.9496C239.57 91.3336 240.001 90.7792 240.555 90.348C241.602 89.5472 242.958 89.1776 244.251 89.424C245.483 89.6088 246.592 90.2864 247.454 91.1488C248.317 92.0112 248.994 93.12 249.241 94.352C249.487 95.892 249.302 97.6168 248.563 98.972C247.824 100.45 246.469 101.682 245.114 102.606C242.834 104.146 239.816 106.179 239.816 106.179C239.816 106.179 237.044 104.331 234.58 103.099C233.102 102.36 231.685 101.251 230.761 99.896C229.898 98.6024 229.467 96.9392 229.59 95.3376Z" fill="#EBEBEB"/>
<path d="M74.6048 148.067C74.6664 147.266 74.9744 146.527 75.4672 145.85C75.96 145.234 76.6376 144.741 77.3768 144.494C78.1776 144.248 79.1016 144.371 79.7792 144.802C80.2104 145.049 80.58 145.418 80.8264 145.85C81.0112 145.418 81.3192 145.11 81.6888 144.802C82.3664 144.31 83.2288 144.063 84.0296 144.186C84.8304 144.31 85.508 144.741 86.0624 145.295C86.6168 145.85 87.048 146.589 87.1712 147.39C87.356 148.375 87.2328 149.484 86.74 150.346C86.2472 151.27 85.3848 152.071 84.5224 152.687C83.044 153.673 81.1344 154.966 81.1344 154.966C81.1344 154.966 79.348 153.796 77.808 152.995C76.884 152.502 75.96 151.825 75.344 150.962C74.7896 150.162 74.5432 149.114 74.6048 148.067Z" fill="#F5F5F5"/>
<path d="M219.057 110.43C219.118 109.629 219.426 108.89 219.919 108.212C220.412 107.596 221.09 107.103 221.829 106.857C222.63 106.61 223.554 106.734 224.231 107.165C224.662 107.411 225.032 107.781 225.278 108.212C225.463 107.781 225.771 107.473 226.141 107.165C226.818 106.672 227.681 106.426 228.482 106.549C229.282 106.672 229.96 107.103 230.514 107.658C231.069 108.212 231.5 108.951 231.623 109.752C231.808 110.738 231.685 111.846 231.192 112.709C230.699 113.633 229.837 114.434 228.974 115.05C227.496 116.035 225.586 117.329 225.586 117.329C225.586 117.329 223.8 116.158 222.26 115.358C221.336 114.865 220.412 114.187 219.796 113.325C219.242 112.524 218.995 111.415 219.057 110.43Z" fill="#F5F5F5"/>
<path d="M250.165 141.538C250.226 140.737 250.534 139.998 251.027 139.32C251.52 138.704 252.198 138.211 252.937 137.965C253.738 137.718 254.662 137.842 255.339 138.273C255.77 138.519 256.14 138.889 256.386 139.32C256.571 138.889 256.879 138.581 257.249 138.273C257.926 137.78 258.789 137.534 259.59 137.657C260.39 137.78 261.068 138.211 261.622 138.766C262.177 139.32 262.608 140.059 262.731 140.86C262.916 141.846 262.793 142.954 262.3 143.817C261.807 144.741 260.945 145.542 260.082 146.158C258.604 147.143 256.694 148.437 256.694 148.437C256.694 148.437 254.908 147.266 253.368 146.466C252.444 145.973 251.52 145.295 250.904 144.433C250.411 143.632 250.103 142.585 250.165 141.538Z" fill="#EBEBEB"/>
<path d="M78.6704 173.631C78.6704 173.077 78.9168 172.584 79.2248 172.214C79.5328 171.783 79.964 171.475 80.4568 171.352C81.0112 171.229 81.5656 171.29 82.0584 171.537C82.3664 171.722 82.5512 171.968 82.736 172.214C82.8592 171.968 83.044 171.722 83.2904 171.537C83.7216 171.229 84.276 171.044 84.8304 171.106C85.3232 171.167 85.816 171.475 86.1856 171.845C86.5552 172.214 86.8632 172.707 86.9248 173.2C87.048 173.878 86.9248 174.555 86.6784 175.171C86.3704 175.787 85.816 176.28 85.2 176.711C84.2144 177.389 82.9824 178.19 82.9824 178.19C82.9824 178.19 81.812 177.45 80.7648 176.896C80.1488 176.588 79.5328 176.095 79.1632 175.541C78.7936 174.986 78.6088 174.309 78.6704 173.631Z" fill="#F5F5F5"/>
<path d="M45.3448 24.5592C45.3448 24.5592 42.5112 27.0232 48.6712 32.6904C54.8312 38.3576 58.5888 40.9448 58.5888 40.9448C58.5888 40.9448 59.8208 42.3616 58.5272 43.1008C57.2336 43.84 54.0304 44.5176 54.092 46.3656C54.092 48.3368 55.94 49.5072 59.0816 50C62.1616 50.4928 68.876 51.848 69.492 51.9712C70.108 52.0944 70.8472 52.6488 70.0464 53.3264C69.2456 54.004 62.716 57.2072 64.4408 60.2256C66.1656 63.244 74.9744 63.1824 75.96 63.1824C76.9456 63.1824 77.2536 63.4904 77.3768 63.9832C77.5 64.476 75.1592 65.3384 73.3728 66.324C71.5248 67.3096 69.6152 68.788 70.724 70.4512C71.8328 72.1144 77.8696 74.2088 89.512 71.1904L94.8096 69.404L96.0416 63.9216C97.9512 52.0944 95.2408 46.304 93.4544 45.3184C91.7296 44.3328 90.436 46.4272 89.6352 48.3368C88.8344 50.2464 88.1568 52.5872 87.664 52.5872C87.1712 52.5256 86.8632 52.2176 86.74 51.2936C86.6168 50.308 85.816 41.5608 82.6744 40.144C79.5328 38.7272 76.9456 45.5648 76.3912 46.3656C75.8368 47.228 75.1592 46.4888 74.9744 45.9344C74.7896 45.3184 72.8184 38.7888 72.0176 35.7704C71.2168 32.752 69.8616 31.0272 67.8904 31.212C65.9808 31.3968 65.6728 34.6 65.0568 35.9552C64.4408 37.3104 62.9008 36.2016 62.9008 36.2016C62.9008 36.2016 60.0056 32.6904 53.7224 27.1464C47.5008 21.4792 45.2832 24.6208 45.3448 24.5592Z" fill="#EBEBEB"/>
<path d="M95.5488 70.5128C90.9904 66.3856 82.9208 58.932 76.0216 52.5872C69.1224 46.2424 62.8392 40.452 58.2808 36.3248C56.0016 34.292 54.1536 32.5672 52.86 31.4584C52.244 30.904 51.7512 30.4112 51.3816 30.1032C51.1968 29.98 51.0736 29.8568 51.012 29.7336C50.9504 29.672 50.8888 29.6104 50.8888 29.6104C50.8888 29.6104 50.9504 29.672 51.012 29.7336C51.1352 29.7952 51.2584 29.9184 51.3816 30.0416C51.7512 30.3496 52.244 30.7808 52.86 31.3352C54.1536 32.444 56.0016 34.1072 58.2808 36.2016C62.8392 40.3288 69.1224 46.0576 76.0832 52.4024C82.9824 58.7472 90.9904 66.2008 95.6104 70.3896" fill="#E0E0E0"/>
<path d="M58.5889 45.688C58.5889 45.688 58.7121 45.688 59.0201 45.6264C59.2665 45.6264 59.6361 45.6264 60.1289 45.6264C61.0529 45.6264 62.3465 45.6264 63.7633 45.688C65.1801 45.7496 66.4121 45.8112 67.3977 45.8728C67.8289 45.8728 68.1985 45.9344 68.5065 45.9344C68.7529 45.9344 68.9377 45.9344 68.9377 45.996C68.9377 45.996 68.8145 45.996 68.5065 46.0576C68.2601 46.0576 67.8905 46.0576 67.3977 46.0576C66.4737 46.0576 65.1801 45.996 63.7633 45.9344C62.3465 45.8728 61.1145 45.8112 60.1289 45.8112C59.6977 45.8112 59.3281 45.8112 59.0201 45.7496C58.7121 45.688 58.5889 45.688 58.5889 45.688Z" fill="#E0E0E0"/>
<path d="M69.0608 45.5032C68.9992 45.5032 68.9376 42.8544 68.9376 39.5896C68.9376 36.3248 68.9376 33.676 68.9992 33.676C69.0608 33.676 69.1224 36.3248 69.1224 39.5896C69.1224 42.8544 69.0608 45.5032 69.0608 45.5032Z" fill="#E0E0E0"/>
<path d="M79.2249 55.7288C79.2249 55.7288 79.2249 55.6056 79.3481 55.2976C79.4097 54.9896 79.5329 54.62 79.6561 54.2504C79.9025 53.3264 80.2721 52.0944 80.5801 50.6776C80.9497 49.2608 81.1961 48.0288 81.3809 47.1048C81.4425 46.6736 81.5657 46.304 81.6273 45.996C81.6889 45.7496 81.6888 45.5648 81.7505 45.6264C81.7505 45.6264 81.7505 45.7496 81.6889 46.0576C81.6273 46.304 81.6273 46.6736 81.5041 47.1664C81.3809 48.0904 81.1345 49.384 80.7649 50.8008C80.4569 52.2176 80.0873 53.4496 79.7793 54.3736C79.6561 54.8048 79.5329 55.1744 79.4097 55.4208C79.2865 55.6056 79.2249 55.7288 79.2249 55.7288Z" fill="#E0E0E0"/>
<path d="M69.8 58.008C69.8 58.008 69.9232 57.9464 70.1696 57.8848C70.416 57.8232 70.7856 57.7 71.1552 57.5768C72.0176 57.3304 73.188 57.0224 74.4816 56.7144C75.7752 56.4064 76.9456 56.0984 77.808 55.9136C78.1776 55.852 78.5472 55.7288 78.7936 55.6672C79.04 55.6056 79.1632 55.6056 79.1632 55.6056C79.1632 55.6056 79.04 55.6672 78.7936 55.7288C78.5472 55.7904 78.1776 55.9136 77.808 56.0368C76.9456 56.2832 75.7752 56.5912 74.4816 56.8992C73.188 57.2072 72.0176 57.5152 71.1552 57.7C70.7856 57.7616 70.416 57.8848 70.1696 57.9464C69.9232 58.008 69.8 58.008 69.8 58.008Z" fill="#E0E0E0"/>
<path d="M77.6848 68.172C77.6848 68.172 77.8696 68.1104 78.116 67.9872C78.424 67.864 78.8552 67.7408 79.4096 67.6176C80.5184 67.3096 81.9968 66.94 83.66 66.5088C85.3232 66.0776 86.8016 65.708 87.9104 65.4C88.4032 65.2768 88.8344 65.1536 89.204 65.092C89.512 65.0304 89.6968 64.9688 89.6968 65.0304C89.6968 65.0304 89.512 65.092 89.2656 65.2152C88.9576 65.3384 88.5264 65.4616 87.972 65.5848C86.8632 65.8928 85.3848 66.2624 83.7216 66.6936C82.0584 67.1248 80.58 67.4944 79.4712 67.8024C78.9784 67.9256 78.5472 68.0488 78.1776 68.1104C77.808 68.172 77.6848 68.172 77.6848 68.172Z" fill="#E0E0E0"/>
<path d="M89.3271 65.0304C89.3271 65.0304 89.3271 64.8456 89.4503 64.5376C89.5119 64.168 89.6351 63.7368 89.8199 63.1824C90.1279 62.012 90.4975 60.4104 90.8671 58.624C91.2367 56.8376 91.5447 55.236 91.7911 54.004C91.9143 53.4496 91.9759 52.9568 92.0375 52.5872C92.0991 52.2792 92.1607 52.0944 92.1607 52.0944C92.1607 52.0944 92.1607 52.2792 92.0991 52.5872C92.0375 52.8952 91.9759 53.388 91.9143 54.004C91.7295 55.1744 91.4215 56.8376 91.0519 58.624C90.6823 60.4104 90.2511 62.012 89.9431 63.1824C89.7583 63.7368 89.6352 64.2296 89.5736 64.5376C89.3888 64.8456 89.3271 65.0304 89.3271 65.0304Z" fill="#E0E0E0"/>
<path d="M219.365 58.8704C211.172 51.7248 210.371 39.9592 211.85 29.672C212.096 27.9472 212.096 26.0992 213.082 24.6824C214.067 23.2656 216.1 22.4032 217.578 23.3272C218.81 24.0664 219.18 25.6064 219.796 26.9616C220.597 28.6864 221.829 30.2264 223.43 31.2736C224.478 31.9512 225.771 32.444 226.942 31.9512C228.543 31.2736 228.913 29.2408 229.098 27.516C229.406 24.3128 229.775 21.1096 230.083 17.9064C230.268 16.1816 230.453 14.4568 231.13 12.8552C231.87 11.2536 233.163 9.8984 234.888 9.5904C236.551 9.2824 238.522 10.4528 238.646 12.1776C238.707 12.9168 238.522 13.5944 238.461 14.3336C238.461 15.0728 238.707 15.8736 239.323 16.12C240.001 16.3664 240.74 15.9968 241.294 15.504C243.266 13.964 244.682 11.8696 246.038 9.7752C247.393 7.6808 248.748 5.5248 250.534 3.8C252.321 2.0752 254.723 0.843199 257.187 0.966399C259.651 1.0896 262.115 2.876 262.485 5.4016C262.854 7.8656 261.191 10.2064 259.405 11.9928C256.818 14.6416 253.861 16.9208 250.596 18.7688C250.042 19.0768 249.364 19.4464 249.118 20.0624C248.625 21.1712 249.61 22.4032 250.658 22.896C251.89 23.4504 253.306 23.4504 254.6 23.7584C255.894 24.0664 257.31 24.8056 257.68 26.0992C258.173 27.9472 256.51 29.6104 254.97 30.6576C251.828 32.752 248.317 34.292 244.621 35.216C243.327 35.524 241.91 35.832 240.802 36.5712C239.693 37.372 238.892 38.8504 239.385 40.0824C239.878 41.376 241.418 41.9304 242.773 41.8072C244.128 41.684 245.36 41.1296 246.715 40.76C249.179 40.144 252.198 40.6368 253.491 42.7928C254.354 44.2712 254.23 46.1192 253.553 47.6592C252.875 49.1992 251.705 50.4928 250.473 51.6016C246.222 55.6056 240.986 58.6856 235.319 59.9792C229.714 61.4576 224.601 61.4576 219.365 58.8704Z" fill="#F5F5F5"/>
<path d="M222.753 52.6488C224.847 47.5976 227.558 42.2384 230.638 36.756C231.438 35.4008 232.178 34.0456 232.917 32.6904C233.656 31.3352 234.395 30.0416 235.258 28.8096C236.859 26.284 238.584 24.0048 240.309 21.9104C242.034 19.816 243.758 17.8448 245.36 16.0584C246.962 14.272 248.502 12.6088 249.98 11.1304C252.875 8.23519 255.524 6.14079 257.372 4.78559C258.296 4.10799 259.035 3.61519 259.528 3.30719C259.774 3.12239 259.959 2.99919 260.082 2.93759C260.206 2.87599 260.267 2.81439 260.267 2.81439C260.267 2.81439 260.206 2.87599 260.082 2.93759C259.959 3.06079 259.774 3.18399 259.528 3.30719C259.035 3.67679 258.296 4.16959 257.372 4.84719C255.524 6.20239 252.937 8.29679 250.042 11.2536C248.563 12.732 247.085 14.3952 245.483 16.1816C243.882 17.968 242.157 19.9392 240.494 22.0952C238.769 24.1896 237.044 26.4688 235.442 28.9944C234.642 30.2264 233.902 31.52 233.163 32.8752C232.424 34.2304 231.623 35.5856 230.884 36.9408C227.804 42.4232 225.094 47.7824 222.999 52.8336" fill="#E0E0E0"/>
<path d="M235.319 28.748C235.319 28.748 235.258 28.5016 235.258 28.0088C235.196 27.516 235.196 26.8384 235.134 25.976C235.073 24.2512 235.073 21.8488 235.073 19.2C235.073 16.5512 235.073 14.1488 234.95 12.424C234.888 11.5616 234.888 10.884 234.826 10.3912C234.826 9.89841 234.765 9.65201 234.826 9.65201C234.826 9.65201 234.888 9.89841 234.95 10.3912C235.011 10.884 235.073 11.5616 235.134 12.424C235.258 14.1488 235.319 16.5512 235.319 19.2C235.319 21.7872 235.258 24.1896 235.258 25.976C235.258 26.7768 235.258 27.4544 235.258 28.0088C235.319 28.5016 235.319 28.748 235.319 28.748Z" fill="#E0E0E0"/>
<path d="M257.865 27.0232C257.865 27.0232 257.557 27.0232 257.002 27.0232C256.448 27.0232 255.586 27.0232 254.6 27.0232C252.567 27.0232 249.734 27.1464 246.592 27.3928C243.45 27.6392 240.678 28.0088 238.646 28.3168C237.66 28.44 236.798 28.6248 236.243 28.6864C235.689 28.8096 235.381 28.8096 235.381 28.8096C235.381 28.8096 235.689 28.6864 236.243 28.5632C236.798 28.44 237.598 28.2552 238.646 28.0704C240.678 27.7008 243.512 27.3312 246.592 27.0848C249.734 26.8384 252.567 26.7768 254.6 26.8384C255.647 26.8384 256.448 26.9 257.002 26.9616C257.557 26.9616 257.865 26.9616 257.865 27.0232Z" fill="#E0E0E0"/>
<path d="M223.061 52.2792C223.061 52.2792 222.999 52.156 222.938 51.9712C222.876 51.7248 222.753 51.4784 222.63 51.1088C222.383 50.3696 222.075 49.3224 221.644 47.9672C220.843 45.3184 219.858 41.6224 218.872 37.5568C217.825 33.4912 216.901 29.7952 216.162 27.1464C215.792 25.8528 215.484 24.8056 215.299 24.0048C215.176 23.6352 215.115 23.3888 215.053 23.1424C214.991 22.9576 214.991 22.8344 214.991 22.8344C214.991 22.8344 215.053 22.9576 215.115 23.1424C215.176 23.3888 215.299 23.6352 215.423 24.0048C215.669 24.744 215.977 25.7912 216.408 27.1464C217.209 29.7952 218.195 33.4912 219.18 37.5568C220.227 41.6224 221.151 45.3184 221.891 47.9672C222.26 49.2608 222.568 50.308 222.753 51.1088C222.876 51.4784 222.938 51.7248 222.999 51.9712C223.061 52.156 223.061 52.2792 223.061 52.2792Z" fill="#E0E0E0"/>
<path d="M253.43 45.996C253.43 45.996 253.307 46.0576 253.122 46.0576C252.875 46.1192 252.567 46.1808 252.259 46.2424C251.459 46.4272 250.35 46.6736 248.995 46.92C246.223 47.4744 242.465 48.3368 238.276 49.2608C234.087 50.1848 230.268 50.9856 227.558 51.54C226.203 51.7864 225.032 51.9712 224.293 52.0944C223.923 52.156 223.615 52.2176 223.369 52.2176C223.184 52.2176 223.061 52.2792 223.061 52.2176C223.061 52.2176 223.184 52.156 223.369 52.156C223.615 52.0944 223.923 52.0328 224.231 51.9712C225.032 51.7864 226.141 51.6016 227.496 51.2936C230.268 50.7392 234.026 49.8768 238.215 48.9528C242.403 48.0288 246.223 47.228 248.933 46.6736C250.288 46.4272 251.459 46.2424 252.198 46.1192C252.567 46.0576 252.875 45.996 253.122 45.996C253.307 45.996 253.43 45.996 253.43 45.996Z" fill="#E0E0E0"/>
<path d="M292.114 259.933C292.114 259.994 230.514 260.118 154.5 260.118C78.4856 260.118 16.8856 260.056 16.8856 259.933C16.8856 259.81 78.4856 259.748 154.5 259.748C230.514 259.81 292.114 259.871 292.114 259.933Z" fill="#263238"/>
<path d="M194.971 110.676C195.341 104.947 195.649 99.28 196.018 93.5512C196.08 92.8736 196.142 92.0728 196.758 91.7032C197.312 91.3952 197.99 91.58 198.544 91.8264C208.646 95.892 216.1 107.165 216.962 118.068" fill="#87C009"/>
<g opacity="0.3">
<g opacity="0.3">
<path opacity="0.3" d="M198.421 97.6168C203.164 100.697 206.306 106.056 206.675 111.723C206.737 112.401 206.675 113.14 206.244 113.694C205.874 114.126 205.32 114.31 204.766 114.372C204.211 114.372 203.657 114.249 203.102 114.126C201.747 113.756 200.33 113.386 199.283 112.401C198.298 111.477 197.866 110.122 197.805 108.766C197.743 107.411 197.99 106.118 198.236 104.824C198.79 105.81 199.406 106.795 199.961 107.781C199.345 104.578 198.729 101.436 198.113 98.2328C198.051 98.048 198.051 97.8632 198.174 97.74C198.298 97.6168 198.544 97.6784 198.544 97.8016" fill="white"/>
</g>
</g>
<path d="M136.328 122.811C131.092 116.59 127.95 108.643 127.704 100.512C129.552 101.374 131.462 102.298 133.31 103.161C132.817 102.606 132.386 101.99 131.893 101.436C140.024 102.052 147.847 105.994 153.206 112.216" fill="#87C009"/>
<g opacity="0.3">
<g opacity="0.3">
<path opacity="0.3" d="M139.47 120.286C135.034 117.082 132.016 112.031 131.4 106.61C131.338 106.241 131.4 105.748 131.77 105.625C132.016 105.563 132.262 105.686 132.509 105.81C135.897 108.027 139.285 110.245 142.673 112.462C142.242 111.846 141.934 111.107 141.872 110.306C143.289 111.354 144.706 112.401 146.184 113.448C146.492 113.694 146.8 113.941 146.862 114.31C146.923 114.742 146.615 115.05 146.307 115.358C144.89 116.651 142.734 117.144 140.948 116.528C141.564 117.082 142.18 117.575 142.796 118.13C141.687 118.869 140.332 119.115 139.038 118.746C138.915 119.362 139.162 120.039 139.716 120.347" fill="white"/>
</g>
</g>
<path d="M251.212 176.526C251.212 176.526 259.097 184.658 262.67 183.98C262.67 183.98 250.226 170.736 244.99 158.478C243.019 153.858 240.062 148.067 236.058 141.846C238.399 137.78 240.494 133.16 241.479 128.54C241.479 128.54 237.537 133.283 232.486 136.671C232.239 136.302 231.931 135.932 231.685 135.562C234.087 133.283 236.305 130.142 236.982 125.953L224.539 125.398C224.847 124.967 225.217 124.413 225.586 123.674C225.586 123.674 217.702 116.405 205.258 110.799C190.967 102.668 159.058 99.9576 143.535 113.202C129.614 121.333 125.918 131.682 114.953 134.269L108.485 133.53C108.485 133.53 105.959 147.082 114.275 153.118L108.115 151.702C108.115 151.702 109.224 157.122 115.322 163.036L111.565 162.605C111.565 162.605 113.228 171.106 118.464 173.138C118.464 173.138 110.271 174.186 107.992 171.106C107.992 171.106 105.282 183.795 117.663 188.6C117.663 188.6 80.5184 192.974 90.9904 238.373C93.4544 248.968 108.054 256.606 124.932 260.302L246.284 259.81C253.676 257.407 262.485 232.89 262.854 223.034C263.162 213.178 258.296 194.144 258.296 194.144L262.916 200.242L251.212 176.526Z" fill="#87C009"/>
<path d="M112.489 195.499C105.528 195.068 98.6904 200.489 97.4584 207.388C101.955 204.37 107.191 202.46 112.55 201.844C108.238 205.663 106.698 212.316 108.978 217.614C110.764 212.809 114.583 208.805 119.265 206.834C116 210.653 115.014 216.258 116.678 221.002" fill="#87C009"/>
<path d="M116.739 221.002C116.739 221.002 116.678 220.94 116.616 220.755C116.554 220.57 116.493 220.324 116.37 220.016C116.185 219.338 115.938 218.353 115.877 217.059C115.815 215.766 115.877 214.164 116.37 212.316C116.862 210.53 117.725 208.558 119.203 206.772L119.326 206.957C117.355 207.819 115.322 209.113 113.474 210.899C111.688 212.686 110.086 214.965 109.101 217.675L108.978 218.045L108.854 217.675C107.376 214.164 107.438 209.79 109.286 205.971C110.086 204.37 111.195 202.891 112.489 201.721L112.612 202.029C106.76 202.706 101.586 204.862 97.5816 207.511L97.3352 207.696L97.3968 207.388C97.7048 205.848 98.2592 204.431 98.9368 203.138C99.6144 201.906 100.477 200.797 101.401 199.934C103.187 198.086 105.22 197.039 106.883 196.362C108.608 195.746 110.025 195.561 111.01 195.499C111.503 195.499 111.873 195.499 112.119 195.499C112.242 195.499 112.304 195.499 112.427 195.499C112.489 195.499 112.55 195.499 112.55 195.499C112.55 195.499 112.489 195.499 112.427 195.499C112.366 195.499 112.242 195.499 112.119 195.499C111.873 195.499 111.503 195.499 111.01 195.499C110.025 195.561 108.608 195.807 106.945 196.423C105.282 197.101 103.31 198.148 101.524 199.996C100.662 200.858 99.7992 201.967 99.1216 203.199C98.444 204.431 97.8896 205.848 97.6432 207.326L97.4584 207.203C101.462 204.493 106.698 202.337 112.612 201.659L113.105 201.598L112.735 201.906C111.442 203.014 110.394 204.431 109.655 206.033C107.807 209.79 107.807 214.102 109.224 217.49H108.916C109.902 214.78 111.565 212.439 113.351 210.653C115.199 208.805 117.294 207.511 119.265 206.649L119.758 206.464L119.45 206.834C117.971 208.62 117.047 210.53 116.616 212.254C116.123 214.041 116.062 215.642 116.123 216.936C116.185 218.23 116.37 219.215 116.554 219.893C116.616 220.201 116.739 220.447 116.739 220.632C116.739 220.94 116.801 221.002 116.739 221.002Z" fill="#263238"/>
<path d="M239.693 214.595C243.389 213.794 247.393 214.349 250.781 216.074C254.169 217.798 256.941 220.755 258.481 224.205" fill="#87C009"/>
<path d="M258.481 224.266C258.419 224.266 257.926 223.096 256.756 221.433C255.586 219.77 253.553 217.675 250.719 216.258C247.947 214.842 245.052 214.41 243.019 214.41C240.986 214.41 239.693 214.718 239.693 214.657C239.693 214.657 240.001 214.534 240.555 214.41C241.11 214.287 241.972 214.164 243.019 214.164C245.114 214.102 248.009 214.534 250.904 215.95C253.738 217.429 255.77 219.585 256.941 221.31C257.557 222.172 257.926 222.911 258.173 223.466C258.419 223.958 258.481 224.266 258.481 224.266Z" fill="#263238"/>
<g opacity="0.3">
<g opacity="0.3">
<path opacity="0.3" d="M196.942 224.821C192.446 225.498 186.778 228.886 184.684 232.952C184.253 233.814 184.622 233.938 184.684 234.862C184.746 235.847 185.238 236.833 186.162 237.202C187.086 237.572 188.257 237.079 188.442 236.094C187.887 239.358 188.626 242.746 190.474 245.518C191.706 244.841 192.754 243.732 193.37 242.438C193.123 247.243 194.91 252.11 198.298 255.559C197.558 252.726 196.819 249.892 196.142 247.058C195.341 243.978 194.602 241.391 194.786 238.188C195.033 234.8 197.004 231.966 198.544 229.194C196.388 230.118 193.924 234.369 191.83 236.894C191.522 232.398 193.431 228.024 196.819 224.944" fill="black"/>
</g>
</g>
<path d="M196.08 247.182C196.08 247.182 196.018 247.058 195.895 246.812C195.772 246.566 195.649 246.196 195.464 245.703C195.156 244.718 194.786 243.301 194.663 241.453C194.54 239.605 194.663 237.326 195.402 234.862C196.142 232.459 197.497 229.872 199.591 227.654L199.838 227.901C198.174 229.441 196.388 231.104 194.725 233.014C193.678 234.246 192.754 235.539 192.014 236.833L191.768 237.264L191.706 236.771C191.398 234.061 192.014 231.474 193.062 229.379C194.109 227.285 195.587 225.622 197.127 224.513L197.25 224.698C195.895 225.19 194.786 225.93 193.924 226.73C193.062 227.531 192.507 228.332 192.076 229.01C191.645 229.687 191.398 230.303 191.275 230.673C191.152 231.104 191.029 231.289 191.029 231.289C191.029 231.289 191.029 231.227 191.09 231.104C191.09 230.981 191.152 230.858 191.214 230.611C191.337 230.18 191.583 229.626 192.014 228.886C192.446 228.147 193 227.346 193.862 226.546C194.725 225.745 195.834 224.944 197.189 224.451L197.99 224.143L197.25 224.698C195.772 225.806 194.294 227.408 193.246 229.502C192.261 231.597 191.706 234.122 191.953 236.71L191.645 236.648C192.384 235.293 193.37 233.999 194.417 232.767C196.08 230.858 197.866 229.194 199.591 227.593L199.838 227.839C197.743 229.995 196.388 232.521 195.649 234.862C194.91 237.264 194.725 239.482 194.848 241.33C194.971 243.178 195.279 244.594 195.587 245.58C195.71 246.073 195.895 246.442 195.957 246.689C196.08 246.997 196.08 247.182 196.08 247.182Z" fill="#263238"/>
<path d="M123.022 246.504C125.425 249.153 128.628 251.062 132.139 251.863C132.57 251.986 133.002 251.986 133.31 251.678C133.679 251.309 133.371 250.693 133.063 250.2C131.77 248.29 130.476 246.319 129.182 244.41C131.954 246.627 135.281 248.044 138.792 248.598C139.346 248.66 140.086 248.722 140.394 248.167C140.64 247.736 140.455 247.243 140.27 246.812C139.654 245.518 139.038 244.163 138.299 242.931" fill="#87C009"/>
<path d="M138.238 243.054C138.238 243.054 138.299 243.178 138.422 243.362C138.546 243.609 138.73 243.917 138.915 244.286C139.162 244.718 139.408 245.21 139.654 245.765C139.778 246.073 139.962 246.381 140.147 246.689C140.332 246.997 140.517 247.366 140.517 247.798C140.517 248.044 140.455 248.29 140.332 248.475C140.209 248.66 139.962 248.783 139.716 248.845C139.223 248.968 138.73 248.845 138.299 248.783C137.375 248.598 136.328 248.352 135.281 248.044C133.186 247.366 131.03 246.258 128.998 244.656L129.244 244.471C129.49 244.779 129.675 245.149 129.922 245.457C130.661 246.566 131.4 247.613 132.078 248.66C132.447 249.153 132.755 249.707 133.125 250.2C133.31 250.446 133.433 250.754 133.556 251.062C133.618 251.37 133.556 251.802 133.186 251.986C132.878 252.171 132.509 252.11 132.262 252.11C131.954 252.048 131.708 251.986 131.462 251.925C130.907 251.802 130.414 251.617 129.922 251.432C128.936 251.062 128.074 250.631 127.334 250.2C125.794 249.338 124.747 248.352 124.008 247.674C123.638 247.305 123.392 247.058 123.207 246.874C123.022 246.689 122.961 246.566 122.961 246.566C122.961 246.566 123.084 246.627 123.269 246.812C123.454 246.997 123.7 247.243 124.07 247.613C124.809 248.29 125.918 249.153 127.396 250.015C128.135 250.446 128.998 250.878 129.983 251.186C130.476 251.37 130.969 251.494 131.462 251.678C131.954 251.802 132.57 252.048 133.002 251.802C133.186 251.678 133.248 251.432 133.186 251.186C133.125 250.939 133.002 250.693 132.817 250.446C132.447 249.954 132.139 249.461 131.77 248.906C131.092 247.859 130.353 246.812 129.552 245.703C129.306 245.334 129.059 245.026 128.874 244.718L128.32 243.855L129.121 244.471C131.092 246.011 133.248 247.12 135.281 247.859C136.328 248.229 137.314 248.475 138.238 248.66C138.73 248.722 139.162 248.845 139.593 248.722C140.024 248.66 140.27 248.29 140.27 247.921C140.27 247.551 140.086 247.182 139.901 246.874C139.716 246.566 139.593 246.258 139.47 245.95C139.223 245.395 138.977 244.902 138.73 244.471C138.546 244.102 138.422 243.794 138.299 243.547C138.299 243.116 138.238 243.054 138.238 243.054Z" fill="#263238"/>
<g opacity="0.3">
<g opacity="0.3">
<path opacity="0.3" d="M138.176 208.189C139.531 210.468 141.564 212.378 143.905 213.548C143.782 212.316 143.227 211.084 142.426 210.16C145.014 212.624 148.094 214.534 151.482 215.766C148.648 217.059 145.137 216.874 142.488 215.273C139.778 213.671 137.93 210.776 137.622 207.696" fill="black"/>
</g>
</g>
<g opacity="0.3">
<g opacity="0.3">
<path opacity="0.3" d="M121.729 168.026C126.595 177.45 142.426 182.07 154.87 182.255C158.689 182.317 164.11 185.15 167.929 184.781C176.43 183.98 183.39 179.36 191.891 178.621C197.189 178.19 202.548 178.005 207.784 177.142C213.02 176.28 212.774 175.602 216.962 172.276C221.151 168.95 225.648 165.685 225.586 160.326C217.763 169.935 210.002 172.892 197.928 175.726C185.854 178.498 173.288 178.498 160.906 177.882C147.231 177.327 132.94 175.849 121.729 168.026Z" fill="black"/>
</g>
</g>
<path d="M163.802 95.892C163.863 95.892 163.925 96.5696 164.11 97.6784C164.294 98.7872 164.664 100.266 165.28 101.867C165.896 103.469 166.697 104.762 167.313 105.748C167.929 106.672 168.36 107.226 168.36 107.226C168.36 107.226 168.237 107.103 167.99 106.918C167.744 106.672 167.498 106.364 167.128 105.871C166.45 104.947 165.65 103.592 164.972 101.99C164.356 100.389 163.986 98.8488 163.863 97.6784C163.802 97.124 163.74 96.6312 163.74 96.3232C163.74 96.0768 163.802 95.892 163.802 95.892Z" fill="#87C009"/>
<path d="M167.806 94.352C167.867 94.352 167.621 94.968 167.374 96.0152C167.128 97.0624 166.943 98.4792 167.066 100.081C167.19 101.682 167.621 103.038 167.99 104.023C168.36 105.009 168.73 105.563 168.668 105.563C168.668 105.563 168.545 105.44 168.36 105.194C168.175 104.947 167.99 104.578 167.744 104.085C167.313 103.099 166.82 101.682 166.697 100.081C166.574 98.4792 166.82 96.9392 167.128 95.9536C167.251 95.4608 167.436 95.0296 167.559 94.7832C167.744 94.4752 167.806 94.2904 167.806 94.352Z" fill="#87C009"/>
<path d="M92.4072 196.731C92.4072 196.731 92.4688 196.67 92.6536 196.485C92.8384 196.362 93.0848 196.115 93.3928 195.869C94.0704 195.314 95.056 194.575 96.4112 193.836C99.06 192.234 103.002 190.694 107.622 189.77C112.242 188.908 116.431 188.723 119.511 188.6C121.051 188.538 122.283 188.538 123.146 188.538C123.515 188.538 123.885 188.538 124.131 188.538C124.378 188.538 124.501 188.538 124.501 188.538C124.501 188.538 124.378 188.538 124.131 188.6C123.885 188.6 123.577 188.6 123.146 188.662C122.222 188.723 121.051 188.723 119.511 188.785C116.493 188.908 112.242 189.154 107.684 190.017C103.126 190.879 99.1832 192.419 96.5344 193.959C95.2408 194.698 94.1936 195.376 93.516 195.93C92.8384 196.485 92.4688 196.731 92.4072 196.731Z" fill="#87C009"/>
<path d="M180.742 97.0008C180.742 97.0624 179.694 96.6928 177.97 96.2616C177.107 96.0768 176.06 95.892 174.951 95.892C173.781 95.892 172.549 96.2 171.44 96.8776C170.886 97.2472 170.393 97.6784 170.023 98.1712C169.654 98.664 169.469 99.2184 169.346 99.7728C169.099 100.882 169.284 101.929 169.469 102.791C169.9 104.516 170.331 105.502 170.27 105.502C170.27 105.502 170.146 105.255 169.9 104.824C169.715 104.393 169.407 103.715 169.222 102.853C168.976 101.99 168.791 100.882 169.038 99.7112C169.161 99.0952 169.407 98.5408 169.777 97.9864C170.146 97.432 170.639 97.0008 171.255 96.6312C172.426 95.892 173.781 95.584 174.951 95.584C176.122 95.584 177.169 95.7688 178.031 96.0152C178.894 96.2616 179.571 96.508 180.002 96.6312C180.495 96.8776 180.742 97.0008 180.742 97.0008Z" fill="#87C009"/>
<path d="M273.142 251.37C272.464 246.935 270.308 242.562 266.612 240.098C262.916 237.572 257.557 237.264 254.046 240.036L239.446 259.81L270.554 259.933C272.279 258.331 273.511 253.711 273.142 251.37Z" fill="#87C009"/>
<g opacity="0.3">
<g opacity="0.3">
<path opacity="0.3" d="M252.444 259.563C255.093 258.454 257.002 256.114 258.234 253.526C259.405 250.939 259.959 248.106 260.452 245.334C260.883 242.993 261.314 240.529 260.267 238.373C259.774 238.311 259.282 238.558 259.035 238.989C258.727 239.358 258.604 239.851 258.419 240.344C256.017 247.921 252.321 254.45 246.222 259.686" fill="black"/>
</g>
</g>
<g opacity="0.3">
<g opacity="0.3">
<path opacity="0.3" d="M159.982 105.07C163.062 113.941 163.432 123.55 163.124 132.914C162.939 137.595 162.631 142.277 161.153 146.774C159.674 151.209 157.026 155.398 153.022 157.862C149.264 160.202 144.644 160.818 140.209 160.202C135.835 159.648 131.646 157.923 127.704 155.952C123.207 153.673 118.834 150.962 115.322 147.328C111.811 143.694 108.978 138.581 108.362 133.591L114.83 134.33C114.83 134.33 119.819 133.776 127.581 126.261C136.082 118.068 137.622 117.021 143.966 112.77C151.913 107.473 159.982 105.07 159.982 105.07Z" fill="white"/>
</g>
</g>
<g opacity="0.3">
<g opacity="0.3">
<path opacity="0.3" d="M186.778 159.771C189.181 158.354 192.569 158.786 194.478 160.818C196.388 158.231 199.961 156.938 203.102 157.677C201.193 158.539 199.283 159.402 197.805 160.818C196.265 162.235 195.156 164.206 195.402 166.301C193.493 164.268 191.275 162.482 188.873 161.065C187.887 160.449 186.532 159.956 185.608 160.634" fill="black"/>
</g>
</g>
<path d="M208.03 229.194C204.519 231.72 201.809 235.478 200.515 239.666C199.222 243.855 199.345 248.414 200.885 252.541" fill="#87C009"/>
<path d="M200.885 252.479C200.885 252.479 200.823 252.418 200.762 252.233C200.7 252.048 200.577 251.863 200.515 251.494C200.269 250.878 200.022 249.954 199.838 248.783C199.406 246.442 199.345 243.054 200.392 239.543C201.439 236.032 203.41 233.26 205.074 231.597C205.874 230.734 206.614 230.118 207.168 229.749C207.414 229.564 207.661 229.379 207.784 229.318C207.907 229.194 208.03 229.194 208.03 229.194C208.03 229.194 207.784 229.441 207.23 229.872C206.737 230.303 205.998 230.919 205.197 231.782C203.595 233.506 201.686 236.217 200.638 239.666C199.591 243.116 199.591 246.442 199.961 248.722C200.146 249.892 200.392 250.816 200.515 251.432C200.762 252.11 200.885 252.479 200.885 252.479Z" fill="#263238"/>
<path d="M220.289 207.881C222.814 205.971 226.079 203.938 228.913 205.294C230.514 206.094 231.562 207.819 231.87 209.544C232.178 211.33 231.87 213.117 231.562 214.903C229.529 225.067 224.97 234.677 218.441 242.685C216.038 245.642 212.712 248.598 209.016 247.798C205.567 247.058 203.595 243.116 203.842 239.605C204.027 236.094 205.813 232.89 207.476 229.749C211.295 222.357 215.114 214.226 220.289 207.881Z" fill="#87C009"/>
<path d="M220.289 207.881C220.289 207.881 220.227 207.942 220.104 208.127C219.981 208.312 219.796 208.497 219.611 208.805C219.18 209.359 218.564 210.222 217.763 211.392C216.223 213.671 214.129 217.121 211.85 221.494C210.741 223.712 209.447 226.114 208.154 228.64C206.86 231.227 205.197 233.876 204.334 237.018C203.903 238.558 203.718 240.282 204.088 241.884C204.396 243.547 205.197 245.149 206.49 246.319C207.106 246.874 207.907 247.366 208.77 247.551C209.632 247.798 210.494 247.798 211.418 247.613C213.205 247.243 214.745 246.196 216.1 244.902C217.455 243.67 218.626 242.13 219.734 240.714C220.843 239.235 221.829 237.757 222.814 236.278C224.662 233.26 226.264 230.242 227.558 227.223C228.851 224.205 229.837 221.31 230.576 218.476C230.946 217.059 231.254 215.704 231.5 214.41C231.746 213.117 231.931 211.823 231.87 210.591C231.808 208.189 230.514 205.971 228.728 205.232C227.866 204.862 226.942 204.801 226.079 204.924C225.278 205.047 224.539 205.294 223.923 205.602C222.691 206.156 221.767 206.772 221.213 207.203C220.905 207.388 220.72 207.573 220.535 207.696C220.35 207.819 220.289 207.881 220.289 207.881C220.289 207.881 220.35 207.819 220.474 207.696C220.597 207.573 220.843 207.388 221.151 207.203C221.767 206.772 222.63 206.156 223.862 205.54C224.478 205.232 225.217 204.986 226.079 204.862C226.942 204.739 227.866 204.801 228.79 205.17C229.714 205.54 230.576 206.279 231.13 207.265C231.685 208.25 232.054 209.421 232.116 210.653C232.178 211.885 231.993 213.178 231.746 214.534C231.5 215.889 231.192 217.244 230.822 218.661C230.083 221.494 229.098 224.451 227.804 227.47C226.572 230.488 224.97 233.568 223.061 236.586C222.075 238.065 221.09 239.605 219.981 241.083C218.872 242.562 217.702 244.04 216.346 245.334C214.93 246.627 213.328 247.736 211.48 248.106C210.556 248.29 209.632 248.29 208.708 248.044C207.784 247.798 206.983 247.305 206.306 246.75C204.95 245.518 204.15 243.855 203.842 242.13C203.472 240.406 203.718 238.681 204.088 237.079C204.95 233.876 206.614 231.227 207.969 228.64C209.324 226.053 210.556 223.65 211.726 221.494C214.067 217.121 216.1 213.733 217.702 211.454C218.502 210.345 219.118 209.482 219.611 208.866C219.858 208.62 219.981 208.374 220.104 208.25C220.227 207.942 220.289 207.881 220.289 207.881Z" fill="#263238"/>
<g opacity="0.3">
<g opacity="0.3">
<path opacity="0.3" d="M220.597 216.628C221.213 214.903 222.506 214.41 223.923 213.918C225.34 213.425 227.065 213.486 228.174 214.472C229.467 215.581 229.652 217.614 229.282 219.277C229.159 219.893 228.974 220.447 228.543 220.878C228.112 221.31 227.434 221.556 226.942 221.248C226.326 220.94 226.141 220.016 225.463 219.77C224.724 219.462 223.923 220.078 223.184 220.324C222.137 220.57 220.966 219.893 220.535 218.907C220.227 218.168 220.289 217.367 220.597 216.628Z" fill="black"/>
</g>
</g>
<g opacity="0.3">
<g opacity="0.3">
<path opacity="0.3" d="M223.246 207.942C223.862 208.127 224.231 208.866 224.231 209.606C224.231 210.406 223.985 211.146 223.738 211.823C223.492 212.439 223.184 213.117 222.506 213.117C222.137 213.117 221.829 212.87 221.582 212.562C221.398 212.254 221.336 211.885 221.274 211.515C221.213 210.653 221.336 209.852 221.644 209.051C221.829 208.682 222.014 208.25 222.383 208.004C222.753 207.758 223.246 207.758 223.554 208.004" fill="black"/>
</g>
</g>
<g opacity="0.3">
<g opacity="0.3">
<path opacity="0.3" d="M230.638 209.482C231.254 209.667 231.623 210.406 231.623 211.146C231.623 211.946 231.377 212.686 231.13 213.363C230.884 213.979 230.576 214.657 229.898 214.657C229.529 214.657 229.221 214.41 228.974 214.102C228.79 213.794 228.728 213.425 228.666 213.055C228.605 212.193 228.728 211.392 229.036 210.591C229.221 210.222 229.406 209.79 229.775 209.544C230.145 209.298 230.638 209.298 230.946 209.544" fill="black"/>
</g>
</g>
<g opacity="0.3">
<g opacity="0.3">
<path opacity="0.3" d="M227.496 206.649C228.112 206.834 228.482 207.573 228.482 208.312C228.482 209.113 228.235 209.852 227.989 210.53C227.742 211.146 227.434 211.823 226.757 211.823C226.387 211.823 226.079 211.577 225.833 211.269C225.648 210.961 225.586 210.591 225.525 210.222C225.463 209.359 225.586 208.558 225.894 207.758C226.079 207.388 226.264 206.957 226.634 206.71C227.003 206.464 227.496 206.464 227.804 206.71" fill="black"/>
</g>
</g>
<g opacity="0.3">
<g opacity="0.3">
<path opacity="0.3" d="M225.155 231.843C224.601 235.539 223.677 239.235 222.137 242.685C220.597 246.134 218.318 249.276 215.361 251.555C214.006 252.602 212.404 253.526 210.679 253.588C208.215 253.65 206.059 251.925 204.951 249.707C203.842 247.49 203.719 245.026 203.842 242.562C205.012 244.533 206.367 246.627 208.462 247.49C210.31 248.229 212.466 247.859 214.191 246.874C215.915 245.95 217.332 244.471 218.564 242.931C221.213 239.728 223.369 236.094 225.032 232.274" fill="black"/>
</g>
</g>
<path d="M87.1712 208.374C84.1528 207.45 80.3952 206.649 78.1776 208.928C76.9456 210.222 76.576 212.193 76.9456 213.979C77.2536 215.766 78.1776 217.367 79.1016 218.846C84.584 227.654 92.2224 235.046 101.093 240.282C104.358 242.192 108.546 243.794 111.688 241.761C114.645 239.851 115.076 235.478 113.659 232.274C112.242 229.071 109.47 226.669 106.822 224.328C100.6 218.784 94.2552 212.501 87.1712 208.374Z" fill="#87C009"/>
<path d="M87.1712 208.374C87.1712 208.374 87.2328 208.435 87.4176 208.497C87.6024 208.62 87.8488 208.743 88.1568 208.928C88.7728 209.298 89.6968 209.852 90.8056 210.653C93.0848 212.193 96.2264 214.657 99.9224 217.983C101.77 219.646 103.803 221.433 105.959 223.342C108.115 225.314 110.579 227.223 112.55 229.872C113.474 231.227 114.275 232.767 114.583 234.492C114.83 236.217 114.706 238.065 113.844 239.666C113.413 240.467 112.797 241.206 112.058 241.761C111.318 242.315 110.394 242.685 109.47 242.808C107.622 243.116 105.713 242.623 103.926 241.946C102.14 241.206 100.6 240.221 98.9984 239.235C97.4584 238.25 95.98 237.202 94.5632 236.094C91.7296 233.938 89.204 231.597 86.9248 229.256C84.7072 226.854 82.736 224.451 81.0112 222.11C80.1488 220.94 79.4096 219.77 78.6704 218.599C77.9928 217.429 77.3768 216.258 77.0072 215.088C76.6376 213.918 76.5144 212.686 76.6992 211.577C76.884 210.468 77.3768 209.482 78.116 208.805C78.8552 208.127 79.7176 207.696 80.58 207.573C81.4424 207.388 82.1816 207.388 82.8592 207.45C84.2144 207.573 85.2616 207.881 86.0008 208.066C86.3704 208.189 86.6168 208.25 86.8016 208.312C87.1096 208.312 87.1712 208.374 87.1712 208.374C87.1712 208.374 87.048 208.374 86.9248 208.312C86.74 208.25 86.4936 208.189 86.124 208.127C85.4464 207.942 84.3992 207.696 82.9824 207.573C82.3048 207.511 81.504 207.511 80.7032 207.696C79.9024 207.881 79.04 208.25 78.3624 208.928C76.9456 210.222 76.5144 212.747 77.3152 215.026C77.6848 216.197 78.3008 217.306 78.9784 218.476C79.7176 219.646 80.4568 220.755 81.3192 221.987C82.9824 224.328 84.9536 226.73 87.2328 229.133C89.4504 231.474 92.0376 233.753 94.8096 235.97C96.2264 237.018 97.7048 238.065 99.2448 239.05C100.785 240.036 102.386 241.022 104.111 241.699C105.836 242.377 107.684 242.87 109.47 242.562C110.333 242.438 111.195 242.069 111.934 241.576C112.674 241.083 113.228 240.406 113.598 239.605C114.398 238.065 114.522 236.278 114.275 234.615C114.029 232.952 113.228 231.412 112.304 230.118C110.394 227.47 107.93 225.56 105.774 223.589C103.618 221.618 101.647 219.831 99.7992 218.168C96.1032 214.903 93.0232 212.378 90.744 210.776C89.6352 209.975 88.7112 209.359 88.0952 208.99C87.7872 208.805 87.5408 208.682 87.4176 208.558C87.2328 208.435 87.1712 208.374 87.1712 208.374Z" fill="#263238"/>
<g opacity="0.3">
<g opacity="0.3">
<path opacity="0.3" d="M89.9432 216.69C88.7728 215.273 87.356 215.273 85.8776 215.334C84.3992 215.334 82.7976 216.012 82.0584 217.306C81.2576 218.846 81.7504 220.755 82.6744 222.234C82.9824 222.726 83.352 223.219 83.9064 223.527C84.4608 223.774 85.2 223.774 85.5696 223.281C86.0624 222.726 85.8776 221.864 86.432 221.371C86.9864 220.817 87.972 221.125 88.7728 221.063C89.8816 220.94 90.744 219.893 90.744 218.784C90.8672 217.983 90.4976 217.244 89.9432 216.69Z" fill="black"/>
</g>
</g>
<g opacity="0.3">
<g opacity="0.3">
<path opacity="0.3" d="M84.3992 209.482C83.9064 209.852 83.8448 210.653 84.0912 211.392C84.3376 212.131 84.8304 212.747 85.3232 213.302C85.7544 213.794 86.3088 214.287 86.9248 214.102C87.2944 213.979 87.4792 213.671 87.6024 213.302C87.664 212.932 87.6024 212.562 87.4792 212.193C87.2328 211.392 86.8016 210.653 86.2472 210.037C85.9392 209.729 85.6312 209.421 85.2 209.359C84.7688 209.236 84.276 209.421 84.0912 209.79" fill="black"/>
</g>
</g>
<g opacity="0.3">
<g opacity="0.3">
<path opacity="0.3" d="M78.0544 213.486C77.5616 213.856 77.5 214.657 77.7464 215.396C77.9928 216.135 78.4856 216.751 78.9784 217.306C79.4096 217.798 79.964 218.291 80.58 218.106C80.9496 217.983 81.1344 217.675 81.2576 217.306C81.3192 216.936 81.2576 216.566 81.1344 216.197C80.888 215.396 80.4568 214.657 79.9024 214.041C79.5944 213.733 79.2864 213.425 78.8552 213.363C78.424 213.24 77.9312 213.425 77.7464 213.794" fill="black"/>
</g>
</g>
<g opacity="0.3">
<g opacity="0.3">
<path opacity="0.3" d="M79.9639 209.79C79.4711 210.16 79.4095 210.961 79.6559 211.7C79.9023 212.439 80.3951 213.055 80.8879 213.61C81.3191 214.102 81.8735 214.595 82.4895 214.41C82.8591 214.287 83.0439 213.979 83.1671 213.61C83.2287 213.24 83.1671 212.87 83.0439 212.501C82.7975 211.7 82.3663 210.961 81.8119 210.345C81.5039 210.037 81.1959 209.729 80.7647 209.667C80.3335 209.544 79.8407 209.729 79.6559 210.098" fill="black"/>
</g>
</g>
<g opacity="0.3">
<g opacity="0.3">
<path opacity="0.3" d="M90.9904 232.521C92.8384 235.786 94.9328 238.927 97.5816 241.576C100.23 244.225 103.434 246.381 107.006 247.551C108.67 248.044 110.456 248.352 112.058 247.798C114.337 246.997 115.815 244.594 116.062 242.192C116.308 239.79 115.569 237.326 114.583 235.108C114.152 237.387 113.659 239.79 111.934 241.33C110.456 242.685 108.3 243.054 106.39 242.746C104.419 242.438 102.633 241.576 100.908 240.59C97.3352 238.496 94.0088 235.909 91.1752 232.89" fill="black"/>
</g>
</g>
<g opacity="0.3">
<g opacity="0.3">
<path opacity="0.3" d="M88.7727 229.194C88.5879 229.441 88.4031 229.687 88.2183 229.934C90.2511 226.73 94.1319 224.759 97.9511 225.006C101.77 225.252 105.343 227.716 106.945 231.166C108.546 234.615 108.115 238.927 105.898 242.007C98.9983 239.174 92.6535 234.923 87.4791 229.626" fill="white"/>
</g>
</g>
<path d="M262.67 223.096C262.67 223.096 262.67 223.219 262.608 223.527C262.546 223.835 262.485 224.205 262.423 224.698C262.3 225.745 262.054 227.223 261.684 229.01C261.006 232.644 259.898 237.695 257.865 242.993C256.818 245.642 255.647 248.106 254.415 250.2C254.107 250.754 253.738 251.247 253.43 251.74C253.245 251.986 253.122 252.233 252.937 252.479C252.752 252.726 252.629 252.91 252.444 253.157C252.136 253.588 251.828 254.019 251.52 254.45C251.212 254.82 250.842 255.19 250.534 255.559C250.226 255.929 249.98 256.237 249.672 256.545C249.364 256.853 249.056 257.099 248.81 257.346C248.563 257.592 248.317 257.838 248.07 258.085C247.824 258.27 247.578 258.454 247.393 258.639C247.023 258.947 246.715 259.194 246.469 259.378C246.222 259.563 246.161 259.625 246.099 259.625C246.099 259.625 246.222 259.502 246.407 259.317C246.654 259.132 246.962 258.886 247.331 258.516C247.516 258.331 247.762 258.146 248.009 257.962C248.255 257.715 248.502 257.469 248.748 257.222C248.994 256.976 249.302 256.668 249.549 256.422C249.857 256.114 250.103 255.806 250.411 255.436C250.719 255.066 251.027 254.697 251.335 254.327C251.643 253.896 251.951 253.526 252.259 253.034C252.444 252.787 252.567 252.602 252.752 252.356C252.875 252.11 253.06 251.863 253.183 251.617C253.491 251.124 253.799 250.631 254.107 250.077C255.339 247.982 256.51 245.518 257.495 242.931C259.528 237.634 260.637 232.644 261.376 229.01C261.746 227.223 261.992 225.745 262.177 224.698C262.238 224.205 262.362 223.835 262.423 223.527C262.608 223.219 262.67 223.096 262.67 223.096Z" fill="#263238"/>
<path d="M120.928 185.705C120.928 185.705 120.99 185.582 121.236 185.397C121.482 185.212 121.729 184.904 122.098 184.596C122.468 184.226 122.961 183.795 123.515 183.364C124.07 182.871 124.686 182.317 125.425 181.762C126.842 180.592 128.566 179.298 130.538 177.882C132.509 176.526 134.726 175.048 137.19 173.631C139.593 172.214 141.995 171.044 144.151 169.997C146.369 168.95 148.34 168.149 150.065 167.471C150.927 167.102 151.728 166.855 152.406 166.609C153.083 166.362 153.699 166.178 154.192 165.993C154.685 165.87 155.054 165.746 155.301 165.623C155.547 165.562 155.67 165.5 155.67 165.5C155.67 165.5 155.547 165.562 155.301 165.685C154.993 165.808 154.623 165.931 154.192 166.116C153.699 166.301 153.145 166.486 152.467 166.732C151.79 166.978 150.989 167.286 150.188 167.594C148.463 168.272 146.492 169.134 144.336 170.182C142.18 171.229 139.839 172.461 137.375 173.816C134.973 175.233 132.755 176.65 130.784 178.005C128.813 179.36 127.088 180.654 125.61 181.824C124.87 182.378 124.254 182.933 123.7 183.364C123.146 183.795 122.653 184.226 122.283 184.534C121.914 184.842 121.606 185.089 121.359 185.274C121.051 185.643 120.928 185.766 120.928 185.705Z" fill="#263238"/>
<path d="M103.618 175.418C103.618 175.418 103.68 175.356 103.742 175.356C103.865 175.294 103.926 175.233 104.111 175.11C104.419 174.925 104.912 174.617 105.466 174.247C106.082 173.878 106.76 173.446 107.622 172.954C108.485 172.461 109.47 171.906 110.579 171.29C111.134 170.982 111.688 170.674 112.304 170.366C112.92 170.058 113.536 169.75 114.214 169.442C115.507 168.765 116.986 168.149 118.464 167.471C121.482 166.178 124.87 164.884 128.505 163.775C132.139 162.666 135.65 161.804 138.915 161.188C140.517 160.88 142.057 160.572 143.535 160.387C144.274 160.264 144.952 160.141 145.63 160.079C146.307 160.018 146.923 159.956 147.601 159.894C148.833 159.771 149.942 159.71 150.927 159.586C151.913 159.525 152.775 159.463 153.453 159.463C154.13 159.463 154.685 159.402 155.054 159.402C155.239 159.402 155.362 159.402 155.486 159.402C155.609 159.402 155.609 159.402 155.609 159.402C155.609 159.402 155.547 159.402 155.486 159.402C155.362 159.402 155.239 159.402 155.054 159.463C154.685 159.463 154.13 159.525 153.453 159.586C152.775 159.648 151.913 159.648 150.927 159.771C149.942 159.894 148.833 159.956 147.601 160.079C146.985 160.141 146.307 160.202 145.691 160.326C145.014 160.387 144.336 160.51 143.597 160.634C142.118 160.818 140.64 161.126 138.977 161.434C135.774 162.112 132.262 162.913 128.628 164.022C124.994 165.13 121.606 166.424 118.587 167.656C117.109 168.334 115.63 168.95 114.337 169.566C113.659 169.874 113.043 170.182 112.427 170.49C111.811 170.798 111.257 171.106 110.702 171.414C109.594 171.968 108.608 172.522 107.746 173.015C106.883 173.508 106.144 173.939 105.528 174.309C104.974 174.678 104.481 174.925 104.173 175.11C104.05 175.171 103.926 175.233 103.803 175.294C103.68 175.418 103.618 175.418 103.618 175.418Z" fill="#263238"/>
<path d="M177.046 155.151C177.107 155.213 175.506 155.89 173.719 157.061C171.933 158.231 170.701 159.463 170.639 159.34C170.578 159.278 171.748 157.985 173.534 156.753C175.321 155.582 176.984 155.09 177.046 155.151Z" fill="#263238"/>
<path d="M187.456 158.478C187.456 158.539 186.532 158.108 185.054 157.738C183.575 157.369 181.419 156.999 179.017 157.184C176.676 157.369 174.52 157.923 173.226 158.724C171.871 159.525 171.44 160.449 171.44 160.449C171.44 160.449 171.502 160.202 171.748 159.833C171.994 159.463 172.426 158.97 173.103 158.539C174.458 157.677 176.614 157.061 179.017 156.876C181.419 156.691 183.637 157.061 185.115 157.554C185.854 157.8 186.47 157.985 186.84 158.17C187.21 158.354 187.456 158.478 187.456 158.478Z" fill="#263238"/>
<path d="M167.19 163.652C167.19 163.652 167.682 164.822 167.929 165.377C168.114 165.808 168.298 166.301 168.36 166.794C168.422 167.286 168.298 167.841 167.929 168.149C167.436 168.642 166.512 168.642 165.896 168.272C165.28 167.902 164.91 167.225 164.664 166.547C164.418 165.87 164.233 165.13 163.925 164.514C163.925 164.514 165.218 163.467 164.91 161.558C164.972 161.558 165.588 163.529 167.19 163.652Z" fill="#F5F5F5"/>
<path d="M157.149 157.307C157.149 157.307 158.689 153.796 162.631 152.749C166.574 151.702 170.639 155.829 170.639 155.829C170.639 155.829 165.896 154.412 165.958 156.814C166.019 159.155 167.436 159.094 165.834 160.695C164.233 162.235 161.584 160.634 160.906 158.786L159.613 156.999L157.149 157.307Z" fill="#263238"/>
<path d="M173.411 159.648C173.411 159.648 173.411 159.71 173.473 159.894C173.473 160.018 173.473 160.264 173.473 160.51C173.411 161.065 173.165 161.866 172.549 162.666C171.933 163.467 170.886 164.268 169.53 164.391C168.175 164.514 166.635 163.96 165.65 162.79C165.157 162.235 164.849 161.558 164.664 160.88L164.972 160.818C165.403 162.05 165.095 163.406 164.479 164.268C163.863 165.192 162.878 165.623 162.138 165.808C161.338 165.993 160.66 165.87 160.29 165.685C160.106 165.623 159.921 165.562 159.798 165.5C159.674 165.438 159.674 165.438 159.674 165.377C159.674 165.377 159.921 165.438 160.29 165.562C160.722 165.685 161.338 165.746 162.077 165.562C162.816 165.377 163.678 164.946 164.233 164.083C164.787 163.221 165.034 161.989 164.664 160.88L164.972 160.818C165.095 161.434 165.403 162.05 165.896 162.543C166.82 163.652 168.298 164.206 169.53 164.083C170.824 163.96 171.81 163.221 172.364 162.482C172.98 161.742 173.226 160.942 173.35 160.449C173.411 159.956 173.411 159.648 173.411 159.648Z" fill="#263238"/>
<path d="M165.773 153.365C165.773 153.426 165.28 153.426 164.541 153.426C163.802 153.426 162.693 153.488 161.584 153.796C160.475 154.104 159.613 154.72 159.058 155.274C158.566 155.829 158.381 156.26 158.319 156.26C158.258 156.26 158.381 155.767 158.874 155.151C159.366 154.535 160.29 153.858 161.461 153.488C162.631 153.118 163.74 153.118 164.479 153.18C165.342 153.242 165.834 153.303 165.773 153.365Z" fill="white"/>
<path d="M167.005 168.642C166.943 168.703 166.204 167.286 165.65 165.438C165.095 163.59 164.91 162.05 164.972 162.05C165.034 162.05 165.403 163.529 165.958 165.377C166.512 167.163 167.066 168.642 167.005 168.642Z" fill="#263238"/>
<path d="M123.146 175.602C123.146 175.602 123.207 175.541 123.392 175.356C123.577 175.171 123.823 174.986 124.131 174.802C124.809 174.309 125.733 173.631 126.965 172.83C128.197 172.03 129.675 171.106 131.4 170.182C133.125 169.258 135.034 168.334 137.067 167.471C139.162 166.609 141.133 165.931 142.981 165.377C144.829 164.822 146.554 164.391 147.97 164.145C149.387 163.837 150.558 163.652 151.358 163.529C151.728 163.467 152.036 163.467 152.282 163.406C152.467 163.406 152.59 163.406 152.59 163.406C152.59 163.406 152.467 163.467 152.282 163.467C152.036 163.529 151.728 163.59 151.358 163.652C150.558 163.775 149.387 164.022 147.97 164.33C146.554 164.638 144.89 165.069 143.042 165.623C141.194 166.178 139.223 166.917 137.129 167.718C135.096 168.58 133.186 169.504 131.462 170.366C129.737 171.29 128.258 172.153 127.026 172.892C125.794 173.693 124.809 174.309 124.131 174.802C123.823 174.986 123.577 175.171 123.33 175.356C123.207 175.541 123.146 175.602 123.146 175.602Z" fill="#263238"/>
<path d="M153.98 148.426C155.756 140.981 151.16 133.505 143.714 131.729C136.268 129.953 128.793 134.549 127.017 141.995C125.241 149.441 129.837 156.916 137.283 158.692C144.729 160.468 152.204 155.872 153.98 148.426Z" fill="#F5F5F5"/>
<path d="M154.377 145.234C154.377 151.948 149.88 157.369 145.999 157.369C142.18 157.369 139.038 151.948 139.038 145.234C139.038 138.519 142.118 133.098 145.999 133.098C149.88 133.098 154.377 138.519 154.377 145.234Z" fill="#263238"/>
<path d="M149.079 140.798C150.406 140.798 151.482 139.723 151.482 138.396C151.482 137.069 150.406 135.994 149.079 135.994C147.752 135.994 146.677 137.069 146.677 138.396C146.677 139.723 147.752 140.798 149.079 140.798Z" fill="white"/>
<path d="M142.981 154.042C142.981 154.042 142.858 153.858 142.611 153.488C142.426 153.118 142.118 152.502 141.872 151.763C141.564 151.024 141.318 150.162 141.133 149.114C140.948 148.067 140.825 146.958 140.763 145.788C140.763 144.618 140.886 143.447 141.01 142.4C141.194 141.353 141.441 140.49 141.687 139.751C141.934 139.012 142.18 138.458 142.426 138.026C142.611 137.657 142.734 137.41 142.734 137.41C142.796 137.41 142.365 138.273 141.934 139.751C141.687 140.49 141.502 141.414 141.318 142.4C141.194 143.386 141.071 144.556 141.071 145.726C141.071 146.897 141.194 148.006 141.379 149.053C141.564 150.038 141.81 150.962 142.057 151.702C142.55 153.18 142.981 154.042 142.981 154.042Z" fill="white"/>
<path d="M136.944 127.554C136.882 127.986 136.39 128.355 135.712 128.663C135.034 128.971 134.11 129.279 133.186 129.71C132.262 130.08 131.462 130.511 130.784 130.758C130.106 131.066 129.552 131.25 129.121 131.004C128.751 130.758 128.69 130.08 129.121 129.218C129.552 128.355 130.538 127.308 131.893 126.754C133.248 126.138 134.603 126.199 135.527 126.446C136.513 126.63 137.006 127.123 136.944 127.554Z" fill="#263238"/>
<path d="M70.6624 245.888L73.804 241.022C88.6496 257.346 137.806 276.811 181.789 232.89C200.7 214.041 199.16 182.132 199.16 182.132L195.402 170.305H199.16C199.16 170.305 210.063 190.386 198.667 216.69C198.667 216.69 186.963 247.859 151.112 259.194C94.5632 277.058 70.6624 245.888 70.6624 245.888Z" fill="#87C009"/>
<g opacity="0.7">
<path opacity="0.7" d="M70.6624 245.888L73.804 241.022C88.6496 257.346 137.806 276.811 181.789 232.89C200.7 214.041 199.16 182.132 199.16 182.132L195.402 170.305H199.16C199.16 170.305 210.063 190.386 198.667 216.69C198.667 216.69 186.963 247.859 151.112 259.194C94.5632 277.058 70.6624 245.888 70.6624 245.888Z" fill="white"/>
</g>
<path d="M69.8275 251.86C80.2437 241.444 80.2438 224.555 69.8275 214.139C59.4112 203.723 42.5231 203.723 32.1068 214.139C21.6905 224.555 21.6905 241.444 32.1068 251.86C42.5231 262.276 59.4112 262.276 69.8275 251.86Z" fill="#87C009"/>
<g opacity="0.7">
<path opacity="0.7" d="M69.8275 251.86C80.2437 241.444 80.2438 224.555 69.8275 214.139C59.4112 203.723 42.5231 203.723 32.1068 214.139C21.6905 224.555 21.6905 241.444 32.1068 251.86C42.5231 262.276 59.4112 262.276 69.8275 251.86Z" fill="white"/>
</g>
<path d="M57.3568 207.018C57.3568 207.018 57.3568 207.203 57.2952 207.511C57.2336 207.881 57.1104 208.374 56.9872 208.928C56.9256 209.236 56.864 209.606 56.7408 209.975C56.6176 210.345 56.4944 210.776 56.3712 211.207C56.1248 212.07 55.8784 213.117 55.4472 214.164C55.2624 214.718 55.0776 215.273 54.8312 215.889C54.6464 216.505 54.3384 217.059 54.092 217.675C53.5992 218.969 52.9832 220.262 52.3056 221.618C50.9504 224.328 49.2872 227.223 47.2544 230.118C45.2216 232.952 43.004 235.539 40.9096 237.695C39.8008 238.742 38.8152 239.79 37.768 240.652C37.2752 241.083 36.7824 241.576 36.2896 241.946C35.7968 242.315 35.304 242.685 34.8728 243.054C34.0104 243.794 33.148 244.348 32.4088 244.902C32.0392 245.149 31.6696 245.395 31.3616 245.642C31.0536 245.826 30.7456 246.011 30.4376 246.196C29.8832 246.504 29.5136 246.812 29.2056 246.997C28.8976 247.182 28.7744 247.243 28.7744 247.243C28.7744 247.243 28.8976 247.12 29.2056 246.935C29.5136 246.75 29.9448 246.442 30.4376 246.134C30.684 245.95 30.992 245.765 31.3 245.518C31.608 245.272 31.9776 245.026 32.3472 244.779C33.0864 244.225 33.9488 243.67 34.8112 242.87C35.2424 242.5 35.7352 242.13 36.228 241.761C36.7208 241.391 37.152 240.898 37.7064 240.467C38.7536 239.605 39.7392 238.558 40.7864 237.51C42.8808 235.293 45.0368 232.767 47.0696 229.934C49.1024 227.1 50.7656 224.205 52.1208 221.494C52.7984 220.139 53.4144 218.846 53.9072 217.614C54.1536 216.998 54.4616 216.382 54.6464 215.827C54.8312 215.211 55.0776 214.657 55.2624 214.164C55.6936 213.117 55.94 212.07 56.248 211.207C56.3712 210.776 56.4944 210.345 56.6176 209.975C56.7408 209.606 56.8024 209.236 56.864 208.928C57.0488 208.312 57.172 207.881 57.2336 207.511C57.2952 207.203 57.3568 207.018 57.3568 207.018Z" fill="#87C009"/>
<path d="M63.64 209.729C63.64 209.729 63.64 209.914 63.5168 210.283C63.4552 210.653 63.332 211.146 63.1472 211.823C63.0856 212.131 62.9624 212.501 62.9008 212.932C62.7776 213.363 62.6544 213.733 62.5312 214.226C62.2232 215.15 61.9768 216.197 61.484 217.367C61.2992 217.922 61.0528 218.538 60.8064 219.154C60.56 219.77 60.252 220.386 60.0056 221.063C59.4512 222.418 58.7736 223.774 58.0344 225.19C56.4944 228.024 54.6464 231.042 52.4288 233.999C50.1496 236.956 47.7472 239.543 45.468 241.761C44.2976 242.87 43.1888 243.917 42.0184 244.779C41.464 245.21 40.9712 245.703 40.4168 246.073C39.8624 246.442 39.3696 246.874 38.8768 247.243C37.8912 247.982 36.9672 248.537 36.1664 249.091C35.3656 249.646 34.6264 250.077 34.072 250.385C33.5176 250.693 33.0248 251.001 32.7168 251.186C32.4088 251.37 32.224 251.432 32.224 251.432C32.224 251.432 32.3472 251.309 32.6552 251.124C32.9632 250.939 33.3944 250.631 33.9488 250.262C34.5032 249.892 35.2424 249.461 36.0432 248.906C36.844 248.352 37.768 247.736 38.692 246.997C39.1848 246.627 39.6776 246.258 40.232 245.826C40.7864 245.457 41.2792 244.964 41.8336 244.533C42.9424 243.609 44.0512 242.623 45.2216 241.514C47.5008 239.297 49.9032 236.71 52.1824 233.753C54.4 230.796 56.248 227.778 57.788 225.006C58.5272 223.589 59.2048 222.234 59.7592 220.94C60.0672 220.262 60.3752 219.646 60.56 219.03C60.8064 218.414 60.9912 217.798 61.2376 217.244C61.6688 216.135 61.9768 215.088 62.2848 214.164C62.408 213.733 62.5928 213.302 62.716 212.87C62.8392 212.501 62.9008 212.131 63.024 211.762C63.2088 211.146 63.332 210.653 63.4552 210.283C63.5784 209.914 63.64 209.729 63.64 209.729Z" fill="#87C009"/>
<path d="M69.492 214.534C69.492 214.534 69.4304 214.718 69.3688 215.088C69.2456 215.458 69.1224 215.95 68.9376 216.628C68.8144 216.936 68.7528 217.306 68.6296 217.737C68.5064 218.106 68.3216 218.538 68.1984 219.03C67.8288 219.954 67.5208 221.002 67.028 222.11C66.7816 222.665 66.5352 223.281 66.2888 223.897C66.0424 224.513 65.6728 225.129 65.3648 225.806C64.7488 227.1 64.0096 228.455 63.2088 229.872C61.6072 232.644 59.636 235.662 57.2952 238.619C54.9544 241.576 52.4904 244.163 50.1496 246.381C48.9176 247.49 47.8088 248.537 46.7 249.399C46.1456 249.83 45.5912 250.323 45.0984 250.693C44.544 251.062 44.0512 251.494 43.5584 251.863C42.5728 252.602 41.6488 253.218 40.848 253.711C40.4168 253.958 40.0472 254.204 39.7392 254.45C39.3696 254.635 39.0616 254.882 38.7536 255.005C38.1992 255.313 37.7064 255.621 37.3984 255.806C37.0904 255.99 36.9056 256.052 36.9056 256.052C36.9056 256.052 37.0288 255.929 37.3368 255.744C37.6448 255.559 38.1376 255.251 38.692 254.882C39 254.697 39.308 254.512 39.6776 254.266C40.0472 254.019 40.4168 253.773 40.7864 253.526C41.5872 252.972 42.5112 252.356 43.4968 251.617C43.9896 251.247 44.4824 250.878 45.0368 250.446C45.5912 250.015 46.084 249.584 46.6384 249.153C47.7472 248.229 48.856 247.182 50.088 246.134C52.4288 243.917 54.8312 241.33 57.172 238.373C59.4512 235.416 61.4224 232.459 63.0856 229.687C63.8864 228.27 64.6256 226.977 65.2416 225.622C65.5496 225.006 65.8576 224.39 66.1656 223.774C66.412 223.158 66.72 222.603 66.9664 222.049C67.4592 220.94 67.8288 219.893 68.1984 218.969C68.3832 218.538 68.568 218.106 68.6912 217.675C68.8144 217.306 68.9376 216.936 69.0608 216.566C69.2456 215.95 69.4304 215.458 69.5536 215.088C69.4304 214.718 69.492 214.534 69.492 214.534Z" fill="#87C009"/>
<path d="M76.5144 239.851C76.5144 239.851 76.268 239.79 75.8984 239.605C75.5288 239.42 74.9744 239.174 74.3584 238.804C73.0648 238.126 71.2784 237.141 69.3688 235.97C67.4592 234.8 65.7344 233.691 64.5024 232.829C63.8864 232.398 63.3936 232.09 63.0856 231.843C62.7776 231.597 62.5928 231.474 62.5928 231.412C62.5928 231.412 62.7776 231.474 63.1472 231.72C63.5784 231.966 64.0712 232.274 64.6256 232.644C65.8576 233.445 67.5824 234.492 69.492 235.662C71.4016 236.833 73.188 237.818 74.4816 238.558C75.0976 238.927 75.5904 239.174 76.0216 239.42C76.3296 239.728 76.5144 239.851 76.5144 239.851Z" fill="#87C009"/>
<path d="M77.6231 234.122C77.6231 234.184 76.9455 233.691 75.8367 232.952C74.7279 232.213 73.2495 231.166 71.5247 230.18C69.7999 229.133 68.1983 228.27 67.0279 227.593C65.8575 226.977 65.1799 226.546 65.1799 226.484C65.1799 226.484 65.3647 226.546 65.7343 226.669C66.0423 226.792 66.5351 227.038 67.1511 227.346C68.3215 227.962 69.9231 228.763 71.7095 229.81C73.4343 230.858 74.9127 231.905 76.0215 232.706C76.5759 233.075 76.9455 233.445 77.2535 233.691C77.4999 233.938 77.6231 234.061 77.6231 234.122Z" fill="#87C009"/>
<path d="M61.176 257.099C61.1144 257.099 60.8679 252.233 60.6831 246.134C60.4983 240.098 60.4367 235.17 60.5599 235.17C60.6215 235.17 60.868 240.036 61.0528 246.134C61.176 252.171 61.2376 257.099 61.176 257.099Z" fill="#87C009"/>
<path d="M47.9936 260.179C47.932 260.179 47.8088 257.469 47.8088 254.081C47.8088 250.693 47.8704 247.982 47.9936 247.982C48.0552 247.982 48.1784 250.693 48.1784 254.081C48.1784 257.407 48.1168 260.179 47.9936 260.179Z" fill="#87C009"/>
<path d="M54.4616 259.44C54.4 259.44 54.3384 255.436 54.3384 250.508C54.4 245.58 54.4616 241.576 54.5848 241.576C54.708 241.576 54.708 245.58 54.708 250.508C54.6464 255.436 54.5848 259.44 54.4616 259.44Z" fill="#87C009"/>
<path d="M40.848 237.757C40.7864 237.818 37.3368 235.601 33.0864 232.706C28.836 229.872 25.448 227.47 25.5096 227.408C25.5712 227.346 29.0208 229.564 33.2712 232.459C37.46 235.293 40.848 237.695 40.848 237.757Z" fill="#87C009"/>
<path d="M36.1664 241.576C36.1664 241.576 35.9816 241.514 35.612 241.391C35.304 241.268 34.8112 241.083 34.2568 240.775C33.0864 240.221 31.5464 239.42 29.9448 238.373C28.2816 237.326 26.8648 236.34 25.8792 235.539C24.8936 234.8 24.2776 234.246 24.2776 234.246C24.2776 234.184 24.9552 234.677 26.0024 235.354C27.0496 236.094 28.4664 237.079 30.1296 238.065C31.7312 239.112 33.2712 239.974 34.38 240.529C35.4888 241.206 36.1664 241.514 36.1664 241.576Z" fill="#87C009"/>
<path d="M52.1824 221.618C52.1824 221.618 51.8744 221.741 51.2584 221.987C50.9504 222.11 50.5808 222.234 50.1496 222.357C49.7184 222.48 49.2256 222.603 48.6096 222.726C47.5008 222.973 46.084 223.219 44.6056 223.342C43.0656 223.466 41.4024 223.527 39.616 223.527C37.8296 223.466 36.1664 223.281 34.6264 223.034C33.0864 222.788 31.7312 222.48 30.6224 222.172C30.068 222.049 29.5752 221.864 29.144 221.741C28.7128 221.618 28.3432 221.494 28.0352 221.371C27.4192 221.125 27.1112 221.002 27.1112 221.002C27.1112 221.002 27.4808 221.063 28.0968 221.248C28.4048 221.371 28.7744 221.494 29.2056 221.556C29.6368 221.679 30.1296 221.802 30.684 221.926C31.7928 222.234 33.148 222.48 34.6264 222.726C36.1664 222.911 37.8296 223.096 39.5544 223.158C41.3408 223.219 43.004 223.158 44.4824 223.034C46.0224 222.911 47.3776 222.726 48.4864 222.48C49.0408 222.357 49.5336 222.234 50.0264 222.172C50.4576 222.049 50.8272 221.987 51.1352 221.864C51.8744 221.679 52.1824 221.618 52.1824 221.618Z" fill="#87C009"/>
<path d="M55.1392 214.718C55.1392 214.718 54.8312 214.903 54.2152 215.15C53.9072 215.273 53.5376 215.396 53.1064 215.581C52.6752 215.766 52.1824 215.889 51.628 216.074C50.5192 216.443 49.164 216.751 47.6856 217.059C46.2072 217.306 44.544 217.552 42.7576 217.675C40.9712 217.798 39.308 217.798 37.768 217.675C36.228 217.552 34.8728 217.367 33.764 217.121C33.2096 216.998 32.7168 216.874 32.224 216.751C31.7928 216.628 31.4232 216.505 31.1152 216.443C30.4992 216.258 30.1912 216.135 30.1912 216.074C30.1912 216.074 30.5608 216.135 31.1768 216.32C31.4848 216.443 31.8544 216.505 32.2856 216.628C32.7168 216.751 33.2096 216.874 33.8256 216.936C34.9344 217.182 36.2896 217.306 37.8296 217.367C39.3696 217.429 41.0328 217.429 42.7576 217.306C44.4824 217.182 46.1456 216.936 47.624 216.69C49.1024 216.382 50.4576 216.135 51.5664 215.766C52.1208 215.642 52.6136 215.458 53.0448 215.334C53.476 215.211 53.8456 215.088 54.1536 214.965C54.8312 214.78 55.1392 214.657 55.1392 214.718Z" fill="#87C009"/>
<path d="M56.9871 208.62C56.9871 208.62 56.6791 208.743 56.1863 208.99C55.6319 209.174 54.8927 209.482 53.9071 209.729C51.9359 210.345 49.2255 211.022 46.1455 211.454C43.0655 211.885 40.2319 212.008 38.1991 211.885C37.2135 211.823 36.3511 211.762 35.7967 211.7C35.2423 211.638 34.9343 211.577 34.9343 211.577C34.9343 211.577 35.2423 211.577 35.7967 211.577C36.3511 211.638 37.1519 211.638 38.1991 211.638C40.2319 211.638 43.0039 211.515 46.0839 211.084C49.1639 210.653 51.8743 209.975 53.7839 209.421C54.7695 209.174 55.5703 208.928 56.0631 208.743C56.6791 208.682 56.9871 208.62 56.9871 208.62Z" fill="#87C009"/>
<path d="M67.7672 234.862C67.8288 234.923 66.2888 236.71 64.3792 238.866C62.408 241.022 60.8064 242.685 60.7448 242.623C60.6832 242.562 62.2232 240.775 64.1328 238.619C66.0424 236.525 67.7056 234.862 67.7672 234.862Z" fill="#87C009"/>
<path d="M72.88 237.942C72.88 237.942 72.8184 238.126 72.572 238.434C72.3872 238.742 72.0792 239.235 71.648 239.728C70.8472 240.837 69.6152 242.254 68.0752 243.609C66.5352 244.964 64.9336 246.011 63.7632 246.627C63.1472 246.935 62.6544 247.182 62.3464 247.366C61.9768 247.551 61.792 247.613 61.792 247.551C61.792 247.49 62.5312 247.12 63.64 246.442C64.8104 245.765 66.2888 244.718 67.8288 243.362C69.3688 242.007 70.6008 240.59 71.4016 239.605C72.3872 238.558 72.8184 237.88 72.88 237.942Z" fill="#87C009"/>
<path d="M74.42 240.652C74.4816 240.652 74.3584 242.315 73.3728 244.102C72.3872 245.888 71.032 246.874 70.9704 246.812C70.9088 246.75 72.1408 245.642 73.0648 243.917C74.0504 242.254 74.3584 240.652 74.42 240.652Z" fill="#87C009"/>
<path d="M79.5944 246.319C79.656 246.319 79.348 247.674 78.3008 248.968C77.2536 250.262 76.0216 250.878 75.96 250.816C75.8984 250.754 77.0072 250.015 78.0544 248.783C79.1016 247.551 79.5328 246.258 79.5944 246.319Z" fill="#87C009"/>
<path d="M87.9104 251.432C87.972 251.432 87.972 252.91 87.1096 254.45C86.2472 255.99 85.0152 256.853 85.0152 256.73C84.9536 256.668 86.0624 255.744 86.8632 254.266C87.664 252.787 87.8488 251.37 87.9104 251.432Z" fill="#87C009"/>
<path d="M97.52 256.052C97.5816 256.052 97.828 257.469 97.212 259.009C96.596 260.61 95.4256 261.473 95.4256 261.411C95.364 261.35 96.3496 260.426 96.904 258.886C97.52 257.407 97.4584 256.052 97.52 256.052Z" fill="#87C009"/>
<path d="M106.39 263.875C106.329 263.875 106.698 262.643 106.76 261.165C106.883 259.625 106.637 258.454 106.698 258.393C106.76 258.393 107.13 259.625 107.068 261.165C106.945 262.766 106.452 263.937 106.39 263.875Z" fill="#87C009"/>
<path d="M113.598 264.43C113.536 264.368 113.967 263.321 114.09 261.904C114.214 260.487 113.967 259.378 114.09 259.378C114.152 259.378 114.583 260.487 114.46 261.966C114.275 263.444 113.659 264.491 113.598 264.43Z" fill="#87C009"/>
<path d="M123.762 264.368C123.638 264.368 123.823 263.321 123.638 262.027C123.454 260.734 123.084 259.81 123.146 259.748C123.207 259.686 123.762 260.672 123.946 261.966C124.131 263.321 123.823 264.368 123.762 264.368Z" fill="#87C009"/>
<path d="M130.722 263.752C130.599 263.752 130.599 262.766 130.291 261.596C129.983 260.426 129.429 259.563 129.552 259.563C129.614 259.502 130.291 260.302 130.599 261.534C130.969 262.766 130.784 263.814 130.722 263.752Z" fill="#87C009"/>
<path d="M138.915 261.966C138.792 261.966 138.854 260.98 138.484 259.871C138.114 258.762 137.56 258.023 137.622 257.962C137.683 257.9 138.422 258.578 138.792 259.81C139.223 260.98 139.038 261.966 138.915 261.966Z" fill="#87C009"/>
<path d="M149.079 259.871C148.956 259.871 148.956 258.762 148.525 257.592C148.094 256.36 147.416 255.559 147.478 255.498C147.539 255.436 148.34 256.237 148.833 257.53C149.264 258.762 149.141 259.933 149.079 259.871Z" fill="#87C009"/>
<path d="M157.58 256.545C157.457 256.545 157.149 255.436 156.41 254.266C155.67 253.034 154.87 252.233 154.931 252.11C154.993 252.048 155.917 252.787 156.656 254.081C157.457 255.374 157.703 256.545 157.58 256.545Z" fill="#87C009"/>
<path d="M167.128 251.555C167.005 251.555 166.758 250.385 165.958 249.153C165.218 247.921 164.294 247.12 164.356 247.058C164.418 246.997 165.465 247.674 166.266 249.03C167.066 250.323 167.19 251.555 167.128 251.555Z" fill="#87C009"/>
<path d="M176.43 244.902C176.368 244.964 175.998 243.855 175.074 242.808C174.212 241.761 173.165 241.268 173.226 241.145C173.226 241.083 174.397 241.453 175.321 242.562C176.245 243.732 176.491 244.902 176.43 244.902Z" fill="#87C009"/>
<path d="M184.376 238.065C184.314 238.126 183.575 237.141 182.466 236.094C181.358 235.046 180.31 234.43 180.372 234.369C180.434 234.307 181.542 234.862 182.713 235.909C183.822 236.956 184.438 238.065 184.376 238.065Z" fill="#87C009"/>
<path d="M191.522 229.194C191.46 229.256 190.844 228.27 189.735 227.346C188.688 226.422 187.579 225.991 187.579 225.868C187.579 225.806 188.811 226.114 189.92 227.1C191.09 228.086 191.583 229.194 191.522 229.194Z" fill="#87C009"/>
<path d="M197.866 218.661C197.805 218.722 196.942 217.798 195.649 217.059C194.294 216.32 193.062 216.135 193.123 216.012C193.123 215.95 194.417 216.012 195.834 216.751C197.189 217.552 197.928 218.599 197.866 218.661Z" fill="#87C009"/>
<path d="M201.747 207.203C201.686 207.265 200.638 206.526 199.098 206.156C197.558 205.786 196.265 206.033 196.265 205.91C196.203 205.848 197.558 205.478 199.16 205.848C200.823 206.218 201.809 207.203 201.747 207.203Z" fill="#87C009"/>
<path d="M203.472 195.006C203.41 195.068 202.425 194.76 201.131 194.637C199.838 194.514 198.79 194.637 198.79 194.514C198.79 194.452 199.838 194.144 201.193 194.329C202.548 194.39 203.534 194.883 203.472 195.006Z" fill="#87C009"/>
<path d="M202.856 182.686C202.856 182.748 202.055 182.686 201.131 182.748C200.207 182.81 199.406 182.933 199.406 182.81C199.406 182.748 200.146 182.44 201.131 182.378C202.055 182.378 202.856 182.625 202.856 182.686Z" fill="#87C009"/>
<path d="M200.33 174.247C200.269 174.309 199.53 173.939 198.482 174.062C197.497 174.186 196.819 174.678 196.758 174.617C196.758 174.617 196.881 174.432 197.189 174.186C197.497 174.001 197.928 173.816 198.482 173.754C199.037 173.693 199.53 173.816 199.838 173.939C200.207 174.062 200.33 174.247 200.33 174.247Z" fill="#87C009"/>
<g opacity="0.3">
<g opacity="0.3">
<path opacity="0.3" d="M158.566 215.704C161.584 221.371 168.545 224.266 174.89 223.527C181.234 222.726 186.902 218.784 190.906 213.733C193.801 209.975 196.018 205.17 194.786 200.612C191.645 207.08 186.039 212.316 179.325 214.965C172.61 217.614 164.91 217.614 158.258 214.965" fill="black"/>
</g>
</g>
<path d="M195.834 166.855C194.417 164.699 193.862 161.927 194.355 159.402C194.848 156.876 196.326 154.535 198.482 152.995C200.207 151.763 202.24 151.086 203.842 149.792C205.874 148.129 206.983 145.542 207.168 142.954C207.353 140.367 206.675 137.718 205.505 135.378L207.23 134.515C207.23 134.515 207.291 134.577 207.353 134.7C212.219 141.045 210.002 150.285 202.856 153.796C201.439 154.474 200.146 155.274 199.283 156.014C197.127 157.862 198.051 159.956 198.051 159.956" fill="#87C009"/>
<g opacity="0.7">
<g opacity="0.7">
<path opacity="0.7" d="M195.834 166.855C194.417 164.699 193.862 161.927 194.355 159.402C194.848 156.876 196.326 154.535 198.482 152.995C200.207 151.763 202.24 151.086 203.842 149.792C205.874 148.129 206.983 145.542 207.168 142.954C207.353 140.367 206.675 137.718 205.505 135.378L207.23 134.515C207.23 134.515 207.291 134.577 207.353 134.7C212.219 141.045 210.002 150.285 202.856 153.796C201.439 154.474 200.146 155.274 199.283 156.014C197.127 157.862 198.051 159.956 198.051 159.956" fill="white"/>
</g>
</g>
<path d="M198.236 160.141C198.174 160.202 197.312 159.833 196.142 159.956C194.971 160.079 194.109 160.634 194.109 160.51C194.047 160.449 194.848 159.71 196.142 159.648C197.374 159.463 198.298 160.079 198.236 160.141Z" fill="#87C009"/>
<path d="M199.838 155.398C199.776 155.459 199.468 154.905 198.975 154.412C198.482 153.919 197.928 153.611 197.99 153.55C197.99 153.488 198.667 153.611 199.222 154.227C199.776 154.72 199.961 155.398 199.838 155.398Z" fill="#87C009"/>
<path d="M205.874 151.825C205.813 151.825 205.566 151.27 205.074 150.654C204.581 150.038 204.088 149.73 204.088 149.669C204.088 149.607 204.766 149.854 205.32 150.47C205.874 151.147 205.998 151.825 205.874 151.825Z" fill="#87C009"/>
<path d="M209.94 144.186C209.878 144.248 209.324 144.063 208.523 143.94C207.784 143.817 207.106 143.878 207.106 143.817C207.106 143.755 207.722 143.57 208.585 143.632C209.447 143.755 210.002 144.125 209.94 144.186Z" fill="#87C009"/>
<path d="M208.585 136.794C208.585 136.856 208.092 136.856 207.476 137.041C206.922 137.226 206.49 137.472 206.429 137.41C206.367 137.349 206.737 136.918 207.414 136.733C208.03 136.486 208.585 136.671 208.585 136.794Z" fill="#87C009"/>
<path d="M151.543 182.378C153.699 180.962 156.594 181.454 159.058 182.255C161.522 183.056 164.048 184.226 166.635 183.98C169.469 183.734 171.871 181.824 173.719 179.668C175.998 177.019 177.723 173.939 178.77 170.613C179.818 167.225 180.31 163.159 183.267 161.188C186.162 159.217 190.29 160.202 192.815 162.605C195.341 165.007 196.573 168.457 197.374 171.845C199.222 179.668 199.283 188.046 196.696 195.684C194.17 203.322 188.934 210.16 181.85 214.041C174.766 217.86 165.834 218.414 158.627 214.842" fill="#87C009"/>
<path d="M158.627 214.718C158.627 214.718 158.75 214.78 158.935 214.842C159.182 214.965 159.49 215.088 159.921 215.273C160.352 215.458 160.906 215.642 161.522 215.827C162.138 216.012 162.878 216.258 163.74 216.443C165.465 216.813 167.559 217.059 170.085 216.998C171.317 216.936 172.672 216.813 174.027 216.566C175.382 216.32 176.861 215.95 178.339 215.396C181.296 214.349 184.253 212.562 187.025 210.16C189.797 207.758 192.261 204.616 194.232 200.982C196.203 197.347 197.497 193.158 198.113 188.723C198.729 184.288 198.606 179.545 197.805 174.863C197.374 172.522 196.881 170.182 196.08 168.026C195.279 165.87 194.109 163.837 192.446 162.358C190.782 160.942 188.565 160.079 186.47 160.202C185.423 160.264 184.376 160.572 183.514 161.126C182.651 161.681 181.974 162.482 181.419 163.344C180.372 165.069 179.879 167.102 179.386 168.95C178.894 170.859 178.278 172.707 177.415 174.309C176.614 175.972 175.629 177.45 174.52 178.806C173.473 180.161 172.302 181.331 170.947 182.255C169.654 183.179 168.237 183.795 166.82 183.918C165.403 184.103 164.048 183.857 162.816 183.487C160.414 182.81 158.442 181.886 156.718 181.578C154.993 181.27 153.638 181.393 152.775 181.701C152.344 181.824 152.036 182.009 151.79 182.132C151.605 182.255 151.482 182.317 151.482 182.317C151.482 182.317 151.605 182.255 151.79 182.132C151.974 182.009 152.282 181.824 152.775 181.701C153.638 181.393 155.054 181.208 156.779 181.516C158.504 181.762 160.537 182.686 162.878 183.364C164.048 183.672 165.403 183.918 166.758 183.734C168.114 183.549 169.53 182.994 170.824 182.07C172.118 181.146 173.226 179.976 174.335 178.682C175.382 177.327 176.368 175.849 177.169 174.186C177.97 172.522 178.586 170.736 179.078 168.826C179.571 166.917 180.064 164.946 181.111 163.098C181.666 162.174 182.343 161.373 183.267 160.757C184.191 160.202 185.238 159.833 186.347 159.771C187.456 159.71 188.565 159.894 189.612 160.264C190.659 160.634 191.645 161.188 192.507 161.989C194.232 163.467 195.402 165.562 196.265 167.779C197.066 169.997 197.62 172.276 197.99 174.678C198.79 179.422 198.914 184.165 198.298 188.6C197.682 193.097 196.326 197.286 194.355 200.982C192.384 204.678 189.858 207.758 187.086 210.222C184.314 212.624 181.234 214.41 178.278 215.458C176.799 216.012 175.321 216.382 173.966 216.628C172.549 216.874 171.255 216.998 170.023 217.059C167.498 217.121 165.403 216.813 163.678 216.443C162.816 216.258 162.077 216.012 161.461 215.827C160.845 215.581 160.29 215.396 159.859 215.211C159.428 215.026 159.12 214.842 158.935 214.78C158.75 214.78 158.627 214.718 158.627 214.718Z" fill="#263238"/>
<path d="M185.177 168.395C185.177 168.395 184.807 168.087 184.438 167.41C184.068 166.732 183.76 165.746 183.76 164.576C183.76 163.406 184.13 162.358 184.499 161.742C184.869 161.065 185.238 160.757 185.238 160.818C185.3 160.88 184.992 161.188 184.684 161.866C184.376 162.543 184.068 163.467 184.068 164.576C184.068 165.685 184.314 166.67 184.622 167.348C184.93 167.964 185.177 168.334 185.177 168.395Z" fill="#263238"/>
<path d="M188.873 167.841C188.873 167.841 188.565 167.471 188.195 166.855C187.887 166.178 187.579 165.192 187.456 164.022C187.394 162.851 187.579 161.804 187.826 161.126C188.072 160.387 188.318 160.018 188.38 160.018C188.503 160.018 187.641 161.742 187.826 163.96C187.949 166.178 188.996 167.779 188.873 167.841Z" fill="#263238"/>
<path d="M191.891 168.888C191.83 168.888 191.398 167.594 191.398 165.931C191.46 164.268 191.953 162.974 192.014 162.974C192.138 162.974 191.768 164.268 191.706 165.931C191.706 167.594 191.953 168.888 191.891 168.888Z" fill="#263238"/>
<path d="M243.327 176.588C237.722 180.038 230.206 179.36 224.354 176.28C218.502 173.2 214.067 168.026 210.433 162.605C209.386 161.065 208.338 159.463 206.675 158.478C203.472 156.63 199.037 158.416 197.25 161.558C195.402 164.699 195.772 168.703 197.189 172.091C197.189 172.091 200.946 190.325 220.535 201.598" fill="#87C009"/>
<path d="M220.474 201.659C220.474 201.659 220.412 201.659 220.289 201.598C220.166 201.536 220.042 201.413 219.796 201.29C219.365 201.043 218.749 200.674 217.948 200.181C217.578 199.934 217.086 199.688 216.654 199.318C216.162 198.949 215.669 198.579 215.114 198.21C214.56 197.778 213.944 197.409 213.39 196.916C212.774 196.423 212.158 195.869 211.542 195.314C209.016 193.035 206.121 190.017 203.472 186.136C202.117 184.226 200.885 182.07 199.776 179.73C198.667 177.389 197.62 174.863 196.942 172.153C196.08 170.058 195.587 167.718 195.834 165.315C195.957 164.145 196.265 162.913 196.881 161.804C197.435 160.695 198.298 159.71 199.345 159.032C200.885 157.985 202.733 157.369 204.519 157.615C205.443 157.738 206.306 158.046 207.045 158.539C207.784 159.032 208.4 159.648 208.954 160.326C209.509 161.003 210.002 161.742 210.433 162.42C210.926 163.098 211.357 163.775 211.85 164.453C212.835 165.808 213.821 167.04 214.868 168.272C216.901 170.674 219.118 172.707 221.398 174.309C223.677 175.91 226.018 177.081 228.297 177.758C232.855 179.175 236.859 178.806 239.385 178.128C239.693 178.066 240.001 177.943 240.309 177.882C240.617 177.758 240.863 177.697 241.11 177.574C241.602 177.389 241.972 177.204 242.28 177.019C242.588 176.834 242.834 176.711 242.958 176.65C243.142 176.588 243.204 176.526 243.204 176.526C243.204 176.526 243.142 176.588 242.958 176.65C242.773 176.773 242.588 176.896 242.28 177.081C241.972 177.266 241.541 177.45 241.11 177.635C240.863 177.758 240.617 177.82 240.309 177.943C240.062 178.066 239.754 178.128 239.385 178.251C236.859 178.99 232.794 179.422 228.174 178.005C225.894 177.327 223.492 176.157 221.151 174.555C218.81 172.954 216.593 170.859 214.56 168.457C213.513 167.286 212.527 165.993 211.542 164.638C211.049 163.96 210.556 163.282 210.125 162.605C209.632 161.927 209.201 161.188 208.646 160.572C208.092 159.894 207.538 159.278 206.798 158.847C206.059 158.416 205.258 158.108 204.396 157.985C202.671 157.8 200.885 158.354 199.406 159.34C197.374 160.695 196.265 163.098 196.08 165.377C195.834 167.718 196.326 169.997 197.189 172.03C197.866 174.74 198.852 177.204 199.961 179.545C201.07 181.886 202.302 183.98 203.657 185.89C206.244 189.77 209.139 192.789 211.665 195.068C212.281 195.622 212.897 196.177 213.513 196.67C214.067 197.162 214.683 197.594 215.238 197.963C215.792 198.394 216.285 198.764 216.716 199.072C217.147 199.442 217.64 199.688 218.01 199.934C218.81 200.427 219.365 200.858 219.796 201.105C219.981 201.228 220.166 201.351 220.289 201.413C220.412 201.659 220.474 201.659 220.474 201.659Z" fill="#263238"/>
<path d="M202.425 168.826C202.302 168.888 201.932 166.732 200.454 164.576C199.037 162.42 197.189 161.311 197.25 161.188C197.25 161.126 197.743 161.373 198.421 161.927C199.098 162.482 199.961 163.282 200.7 164.391C201.439 165.5 201.932 166.609 202.117 167.41C202.425 168.272 202.486 168.826 202.425 168.826Z" fill="#263238"/>
<path d="M206.244 166.362C206.121 166.362 206.059 164.206 204.889 161.804C203.78 159.402 202.055 158.046 202.178 157.923C202.178 157.923 202.671 158.231 203.287 158.847C203.903 159.463 204.642 160.449 205.197 161.681C205.751 162.913 206.059 164.083 206.182 164.946C206.306 165.808 206.306 166.362 206.244 166.362Z" fill="#263238"/>
<g opacity="0.3">
<g opacity="0.3">
<path opacity="0.3" d="M193.493 202.522C195.033 200.181 188.688 199.626 185.916 199.934C181.912 200.427 178.031 202.398 175.382 205.478C172.734 208.497 171.194 212.562 171.255 216.628C171.255 216.628 183.39 217.922 193.493 202.522Z" fill="white"/>
</g>
</g>
<g opacity="0.3">
<g opacity="0.3">
<path opacity="0.3" d="M203.903 192.05C207.045 196.916 211.911 200.674 217.394 202.522C218.01 202.706 218.626 202.891 219.242 202.768C219.858 202.645 220.412 202.09 220.412 201.474C213.882 197.902 208.154 192.789 203.965 186.629C203.657 188.477 203.903 190.51 204.766 192.234" fill="black"/>
</g>
</g>
<path d="M195.39 150.41C200.802 144.998 200.802 136.222 195.39 130.81C189.977 125.397 181.202 125.397 175.789 130.81C170.376 136.222 170.376 144.998 175.789 150.41C181.202 155.823 189.977 155.823 195.39 150.41Z" fill="#F5F5F5"/>
<path d="M199.468 141.23C199.468 147.944 195.957 153.55 192.014 153.55C188.072 153.55 184.93 148.129 184.93 141.414C184.93 134.7 188.134 129.279 192.014 129.279C195.957 129.218 199.468 134.515 199.468 141.23Z" fill="#263238"/>
<path d="M188.565 146.958C188.565 146.958 188.442 146.835 188.257 146.527C188.072 146.219 187.887 145.788 187.702 145.172C187.271 144.002 186.902 142.277 186.963 140.429C187.025 138.519 187.456 136.856 187.949 135.686C188.195 135.131 188.442 134.638 188.626 134.392C188.811 134.084 188.934 133.961 188.934 133.961C188.996 133.961 188.626 134.638 188.195 135.809C187.764 136.979 187.394 138.581 187.333 140.49C187.271 142.338 187.579 144.002 187.949 145.172C188.257 146.281 188.626 146.958 188.565 146.958Z" fill="white"/>
<path d="M193.801 135.994C195.128 135.994 196.203 134.918 196.203 133.591C196.203 132.264 195.128 131.189 193.801 131.189C192.474 131.189 191.398 132.264 191.398 133.591C191.398 134.918 192.474 135.994 193.801 135.994Z" fill="white"/>
<path d="M194.602 123.489C194.355 123.858 193.678 123.858 192.815 123.735C191.953 123.612 190.906 123.366 189.797 123.181C188.626 122.996 187.641 122.873 186.778 122.75C185.978 122.626 185.3 122.442 185.115 122.072C184.93 121.702 185.362 121.025 186.286 120.532C186.778 120.286 187.333 120.101 188.01 119.978C188.688 119.854 189.489 119.854 190.29 119.978C191.891 120.224 193.185 120.963 193.862 121.702C194.602 122.442 194.848 123.119 194.602 123.489Z" fill="#263238"/>
<path d="M188.318 157.985C186.162 153.611 187.764 147.821 191.83 145.11C195.895 142.4 201.87 143.201 205.012 146.897" fill="#87C009"/>
<path d="M205.012 146.897C205.012 146.897 204.704 146.589 204.15 146.158C203.595 145.665 202.733 145.049 201.562 144.556C200.392 144.063 198.852 143.694 197.127 143.694C195.402 143.694 193.554 144.186 191.891 145.234C190.29 146.342 189.119 147.882 188.442 149.484C187.764 151.024 187.518 152.626 187.518 153.919C187.518 155.213 187.764 156.26 187.949 156.938C188.195 157.615 188.318 157.985 188.318 157.985C188.318 157.985 188.257 157.923 188.195 157.738C188.134 157.554 187.949 157.307 187.826 156.938C187.579 156.26 187.271 155.213 187.271 153.858C187.21 152.564 187.456 150.962 188.134 149.299C188.811 147.698 190.043 146.096 191.706 144.926C193.431 143.817 195.341 143.324 197.127 143.324C198.914 143.324 200.454 143.694 201.624 144.248C202.856 144.802 203.718 145.418 204.211 145.973C204.519 146.219 204.642 146.466 204.766 146.589C204.95 146.774 205.012 146.897 205.012 146.897Z" fill="#263238"/>
<path d="M160.722 105.378C160.722 105.378 160.598 105.44 160.414 105.502C160.167 105.563 159.859 105.625 159.49 105.748C159.058 105.871 158.627 105.994 158.073 106.179C157.765 106.241 157.518 106.364 157.149 106.426C156.841 106.549 156.471 106.672 156.163 106.795C153.391 107.719 149.634 109.382 145.814 111.723C141.934 114.064 138.73 116.59 136.451 118.438C135.342 119.362 134.418 120.162 133.741 120.655C133.433 120.902 133.186 121.086 133.002 121.271C132.817 121.394 132.755 121.456 132.755 121.456C132.755 121.456 132.817 121.394 133.002 121.21C133.186 121.025 133.433 120.84 133.679 120.532C134.295 119.978 135.158 119.177 136.328 118.191C138.607 116.282 141.81 113.756 145.691 111.415C149.572 109.074 153.33 107.411 156.163 106.549C156.533 106.426 156.841 106.302 157.149 106.241C157.457 106.179 157.765 106.056 158.073 105.994C158.627 105.81 159.12 105.686 159.551 105.625C159.921 105.563 160.229 105.502 160.475 105.44C160.598 105.378 160.722 105.378 160.722 105.378Z" fill="#263238"/>
<path d="M109.84 106.795C113.043 102.483 114.953 97.0624 114.953 91.272C114.953 76.9192 103.31 65.2768 88.9576 65.2768C74.6048 65.2768 62.9624 76.9192 62.9624 91.272C62.9624 105.625 74.6048 117.267 88.9576 117.267C94.2552 117.267 99.1216 115.666 103.249 112.955L112.181 116.898L109.84 106.795Z" fill="#FAFAFA"/>
<path d="M81.1345 89.732C81.1961 88.7464 81.6273 87.8224 82.1817 87.0832C82.7977 86.344 83.5985 85.728 84.5225 85.4816C85.5081 85.2352 86.6169 85.3584 87.4793 85.8512C87.9721 86.1592 88.4033 86.5904 88.7729 87.1448C89.0193 86.652 89.3889 86.2208 89.8201 85.8512C90.6209 85.2352 91.6681 84.9272 92.7153 85.112C93.6393 85.2352 94.5017 85.7896 95.1793 86.4672C95.8569 87.1448 96.4113 88.0072 96.5345 88.9928C96.7193 90.2248 96.5961 91.5184 96.0417 92.6272C95.4257 93.7976 94.4401 94.7216 93.3313 95.4608C91.5449 96.6928 89.2041 98.2328 89.2041 98.2328C89.2041 98.2328 87.0481 96.816 85.1385 95.7688C83.9681 95.1528 82.8593 94.352 82.1201 93.2432C81.3809 92.2576 81.0729 90.964 81.1345 89.732Z" fill="#87C009"/>
<path d="M89.0192 65.2768C89.0192 65.2768 88.896 65.2768 88.588 65.2768C88.28 65.2768 87.8489 65.2768 87.2329 65.3384C86.9249 65.3384 86.6168 65.3384 86.2472 65.4C85.8776 65.4616 85.5081 65.5232 85.0769 65.5848C84.6457 65.6464 84.2145 65.708 83.7217 65.7696C83.2289 65.8928 82.7361 66.016 82.1817 66.1392C80.0257 66.6936 77.4384 67.6176 74.7896 69.3424C72.1408 71.0672 69.3688 73.4696 67.1512 76.796C64.9336 80.1224 63.2704 84.3112 62.7776 88.9928C62.716 90.1632 62.5928 91.3336 62.716 92.5656C62.7776 93.1816 62.716 93.7976 62.8392 94.4136C62.9008 95.0296 63.024 95.6456 63.1472 96.2616C63.64 98.7256 64.3792 101.19 65.6112 103.53C66.8432 105.871 68.4448 108.089 70.3544 110.06C72.3256 112.031 74.6664 113.694 77.192 114.988C79.7792 116.282 82.6129 117.206 85.5697 117.575C86.3089 117.698 87.048 117.698 87.7872 117.76C88.5264 117.822 89.2656 117.822 90.0664 117.822C91.5448 117.76 93.0848 117.575 94.5632 117.267C97.828 116.59 100.846 115.234 103.557 113.51H103.31C106.452 114.742 109.47 115.974 112.489 117.206L113.043 117.452L112.858 116.898C111.934 113.51 111.01 110.245 110.148 107.103L110.086 107.35C112.674 103.962 114.275 100.019 114.953 96.1384C115.322 94.2288 115.446 92.2576 115.322 90.4096C115.261 89.4856 115.261 88.5616 115.076 87.6376C115.014 87.2064 114.953 86.7136 114.891 86.2824C114.83 85.8512 114.645 85.42 114.583 84.9888C112.797 78.0896 108.546 73.0384 104.358 70.0816C102.263 68.6032 100.169 67.556 98.2593 66.8784C97.7664 66.6936 97.3353 66.5704 96.904 66.3856C96.4729 66.2624 96.0416 66.1392 95.6104 66.0776C95.1792 65.9544 94.8097 65.8928 94.4401 65.7696C94.0704 65.708 93.7008 65.6464 93.3312 65.5848C92.6536 65.5232 92.0376 65.4 91.4832 65.3384C90.9288 65.3384 90.4977 65.2768 90.128 65.2768C89.7584 65.2768 89.512 65.2768 89.3272 65.2768C89.0808 65.2768 89.0192 65.2768 89.0192 65.2768C89.0192 65.2768 89.1424 65.2768 89.3272 65.3384C89.512 65.3384 89.82 65.4 90.128 65.4C90.4977 65.4 90.9288 65.4616 91.4832 65.4616C92.0376 65.5232 92.5921 65.6464 93.2697 65.708C95.9801 66.2008 99.9841 67.248 104.111 70.2664C108.238 73.1616 112.366 78.2128 114.09 84.9888C114.214 85.42 114.337 85.8512 114.398 86.2824C114.46 86.7136 114.522 87.1448 114.583 87.576C114.768 88.4384 114.768 89.3624 114.83 90.2864C114.953 92.1344 114.83 93.9824 114.46 95.892C113.782 99.7112 112.181 103.469 109.655 106.857L109.594 106.98L109.655 107.103C110.518 110.245 111.38 113.51 112.304 116.898L112.674 116.528C109.717 115.358 106.637 114.126 103.495 112.832H103.372L103.249 112.894C100.6 114.618 97.6432 115.912 94.4401 116.59C92.9617 116.898 91.4833 117.082 90.0049 117.144C89.2657 117.206 88.5264 117.144 87.7872 117.082C87.048 117.021 86.3088 117.021 85.6312 116.898C82.736 116.528 79.964 115.666 77.4384 114.372C74.9128 113.078 72.6336 111.477 70.724 109.567C68.8144 107.658 67.2744 105.44 66.0424 103.161C64.8104 100.882 64.0712 98.4176 63.5784 96.0152C63.4552 95.3992 63.3936 94.7832 63.2704 94.2288C63.2088 93.6128 63.2088 92.9968 63.1472 92.4424C63.024 91.272 63.1472 90.1016 63.2088 88.9312C63.64 84.3112 65.2416 80.2456 67.3976 76.9192C69.5536 73.6544 72.264 71.1904 74.9128 69.5272C77.5 67.8024 80.0873 66.8168 82.1817 66.2624C82.7361 66.1392 83.2288 66.016 83.66 65.8312C84.1528 65.7696 84.584 65.708 85.0152 65.5848C85.4464 65.5232 85.8161 65.4616 86.1857 65.4C86.5553 65.3384 86.8632 65.3384 87.1712 65.3384C87.7256 65.2768 88.1569 65.2768 88.4649 65.2152C88.8345 65.3384 89.0192 65.2768 89.0192 65.2768Z" fill="#263238"/>
</svg>
