<svg width="33" height="31" viewBox="0 0 33 31" fill="none" xmlns="http://www.w3.org/2000/svg">
<path fill-rule="evenodd" clip-rule="evenodd" d="M21.5611 9C23.1193 9 24 10.0046 24 11.3981V27.9907C24 29.1574 23.1193 30 21.866 30C20.6465 30 19.7658 29.1574 19.7658 27.9907V15.7083L14.7187 23.4213C14.0751 24.3935 13.4315 24.7176 12.4831 24.7176C11.5685 24.7176 10.891 24.3935 10.2474 23.4213L5.23417 15.7731V27.9907C5.23417 29.1574 4.35346 30 3.10015 30C1.88071 30 1 29.1574 1 27.9907V11.6898C1 10.037 2.0162 9 3.81149 9C5.40353 9 6.2165 9.81019 7.19882 11.3009L12.754 19.9861L18.7496 10.6852C19.4271 9.64815 20.1384 9 21.5611 9Z" fill="white" stroke="white" stroke-width="0.5"/>
<g filter="url(#filter0_d_264_297)">
<rect x="15.5" y="3" width="13" height="12" rx="4" fill="#FF9D00"/>
<path d="M18.116 7.344V11.528C18.116 11.8 18.308 12 18.58 12H21.02C21.3 12 21.492 11.808 21.492 11.536C21.492 11.248 21.3 11.056 21.02 11.056H19.116V9.888H20.7C20.98 9.888 21.172 9.688 21.172 9.416C21.172 9.136 20.98 8.944 20.7 8.944H19.116V7.808H21.02C21.3 7.808 21.492 7.624 21.492 7.344C21.492 7.064 21.3 6.872 21.02 6.872H18.58C18.308 6.872 18.116 7.064 18.116 7.344ZM21.9582 11.128C21.9582 11.688 22.8542 12.104 23.8382 12.104C25.0462 12.104 25.7742 11.448 25.7742 10.528C25.7742 8.712 23.0382 9.128 23.0382 8.208C23.0382 7.904 23.2862 7.704 23.7502 7.704C24.5182 7.704 24.8382 8.064 25.2062 8.064C25.4622 8.064 25.6302 7.896 25.6302 7.664C25.6302 7.12 24.8222 6.768 23.8782 6.768C22.7102 6.768 21.9742 7.376 21.9742 8.248C21.9742 10.032 24.7422 9.608 24.7422 10.592C24.7422 10.96 24.3982 11.168 23.9262 11.168C23.1262 11.168 22.7342 10.728 22.3902 10.728C22.1262 10.728 21.9582 10.904 21.9582 11.128Z" fill="white"/>
</g>
<defs>
<filter id="filter0_d_264_297" x="11.5" y="0" width="21" height="20" filterUnits="userSpaceOnUse" color-interpolation-filters="sRGB">
<feFlood flood-opacity="0" result="BackgroundImageFix"/>
<feColorMatrix in="SourceAlpha" type="matrix" values="0 0 0 0 0 0 0 0 0 0 0 0 0 0 0 0 0 0 127 0" result="hardAlpha"/>
<feOffset dy="1"/>
<feGaussianBlur stdDeviation="2"/>
<feComposite in2="hardAlpha" operator="out"/>
<feColorMatrix type="matrix" values="0 0 0 0 0 0 0 0 0 0 0 0 0 0 0 0 0 0 0.25 0"/>
<feBlend mode="normal" in2="BackgroundImageFix" result="effect1_dropShadow_264_297"/>
<feBlend mode="normal" in="SourceGraphic" in2="effect1_dropShadow_264_297" result="shape"/>
</filter>
</defs>
</svg>
