<svg width="33" height="31" viewBox="0 0 33 31" fill="none" xmlns="http://www.w3.org/2000/svg">
<path d="M10.4293 24.924L12.982 21.998L9.30745 19.3935L1 28.6492V29H21.84V25.0939H10.4293V24.924Z" fill="white"/>
<path d="M3.77376 9V12.9061H14.9785V13.076L12.2213 16.1474L15.845 18.7152L24 9.36299V9H3.77376Z" fill="white"/>
<g filter="url(#filter0_d_264_291)">
<rect x="12.5" y="3" width="16" height="12" rx="4" fill="#9EDC15"/>
<path d="M19.972 6.84C19.636 6.84 19.468 7 19.308 7.256L17.892 9.552L16.58 7.408C16.348 7.04 16.156 6.84 15.78 6.84C15.356 6.84 15.116 7.096 15.116 7.504V11.528C15.116 11.816 15.324 12.024 15.612 12.024C15.908 12.024 16.116 11.816 16.116 11.528V8.512L17.3 10.4C17.452 10.64 17.612 10.72 17.828 10.72C18.052 10.72 18.204 10.64 18.356 10.4L19.548 8.496V11.528C19.548 11.816 19.756 12.024 20.044 12.024C20.34 12.024 20.548 11.816 20.548 11.528V7.432C20.548 7.088 20.34 6.84 19.972 6.84ZM25.5963 11.192L24.1803 9.4L25.5323 7.584C25.7963 7.232 25.6043 6.856 25.2283 6.848C25.0523 6.84 24.8763 6.912 24.7403 7.088L23.5723 8.624L22.4683 7.224C22.2523 6.96 22.1003 6.84 21.8603 6.84C21.4683 6.84 21.1483 7.248 21.5003 7.68L22.8363 9.36L21.3803 11.288C21.1003 11.64 21.3243 12.032 21.7083 12.032C21.8843 12.032 22.0363 11.936 22.1643 11.776L23.4443 10.128L24.6523 11.648C24.8683 11.904 25.0283 12.032 25.2763 12.032C25.6683 12.032 25.9163 11.592 25.5963 11.192Z" fill="white"/>
</g>
<defs>
<filter id="filter0_d_264_291" x="8.5" y="0" width="24" height="20" filterUnits="userSpaceOnUse" color-interpolation-filters="sRGB">
<feFlood flood-opacity="0" result="BackgroundImageFix"/>
<feColorMatrix in="SourceAlpha" type="matrix" values="0 0 0 0 0 0 0 0 0 0 0 0 0 0 0 0 0 0 127 0" result="hardAlpha"/>
<feOffset dy="1"/>
<feGaussianBlur stdDeviation="2"/>
<feComposite in2="hardAlpha" operator="out"/>
<feColorMatrix type="matrix" values="0 0 0 0 0 0 0 0 0 0 0 0 0 0 0 0 0 0 0.25 0"/>
<feBlend mode="normal" in2="BackgroundImageFix" result="effect1_dropShadow_264_291"/>
<feBlend mode="normal" in="SourceGraphic" in2="effect1_dropShadow_264_291" result="shape"/>
</filter>
</defs>
</svg>
