<svg width="300" height="300" viewBox="0 0 300 300" fill="none" xmlns="http://www.w3.org/2000/svg">
<path fill-rule="evenodd" clip-rule="evenodd" d="M140.5 71C152.926 71 163 60.9264 163 48.5C163 36.0736 152.926 26 140.5 26C128.074 26 118 36.0736 118 48.5C118 60.9264 128.074 71 140.5 71ZM140 61C146.627 61 152 55.6274 152 49C152 42.3726 146.627 37 140 37C133.373 37 128 42.3726 128 49C128 55.6274 133.373 61 140 61Z" fill="#011625"/>
<path d="M140.05 229.1C164.378 229.1 184.1 209.378 184.1 185.05C184.1 160.722 164.378 141 140.05 141C115.722 141 96 160.722 96 185.05C96 209.378 115.722 229.1 140.05 229.1Z" fill="#FF4040"/>
<path d="M209.767 152.299V118.504C209.767 100.07 202.444 82.3917 189.41 69.3572C176.375 56.3227 158.697 49 140.263 49C121.83 49 104.151 56.3227 91.1165 69.3572C78.082 82.3917 70.7593 100.07 70.7593 118.504V152.299C70.7601 160.063 68.5637 167.669 64.424 174.237C60.2843 180.806 54.3702 186.069 47.3655 189.418C45.7555 190.184 44.3965 191.393 43.4466 192.902C42.4967 194.411 41.9951 196.159 42 197.942V198.125C41.9988 198.769 42.1247 199.407 42.3703 200.003C42.6159 200.598 42.9765 201.139 43.4315 201.595C43.8865 202.051 44.4269 202.412 45.0218 202.659C45.6168 202.906 46.2545 203.033 46.8985 203.033H233.619C234.263 203.033 234.9 202.906 235.495 202.659C236.09 202.412 236.631 202.051 237.086 201.595C237.541 201.139 237.901 200.598 238.147 200.003C238.392 199.407 238.518 198.769 238.517 198.125V197.942C238.518 196.165 238.015 194.423 237.067 192.919C236.119 191.416 234.765 190.211 233.161 189.445C226.152 186.094 220.235 180.827 216.095 174.253C211.955 167.68 209.761 160.068 209.767 152.299Z" fill="#E1DCEB"/>
<path fill-rule="evenodd" clip-rule="evenodd" d="M239 203H42V197H239V203Z" fill="#011625"/>
<path fill-rule="evenodd" clip-rule="evenodd" d="M86.1081 218.302C81.3176 222.634 76.5405 226.879 71.8784 231.349C70.8719 232.307 70.834 233.886 71.7862 234.882C72.7414 235.887 74.3298 235.918 75.3268 234.963C79.9665 230.522 84.7019 226.312 89.4605 222.011C90.4858 221.078 90.5651 219.495 89.6479 218.478C88.7182 217.454 87.1334 217.369 86.1081 218.302Z" fill="#011625"/>
<path fill-rule="evenodd" clip-rule="evenodd" d="M194.324 218.304C199.088 222.637 203.838 226.883 208.473 231.353C209.474 232.311 209.503 233.89 208.547 234.883C207.588 235.886 206.001 235.916 205.01 234.961C200.398 230.519 195.689 226.308 190.957 222.006C189.937 221.073 189.866 219.492 190.787 218.476C191.721 217.454 193.305 217.371 194.324 218.304Z" fill="#011625"/>
<path fill-rule="evenodd" clip-rule="evenodd" d="M137.152 246.296C137.076 252.741 136.945 259.117 137.057 265.56C137.076 266.947 138.208 268.043 139.584 268.017C140.969 267.995 142.07 266.851 142.046 265.474C141.94 259.066 142.069 252.744 142.146 246.343C142.158 244.96 141.052 243.832 139.684 243.817C138.303 243.807 137.165 244.913 137.152 246.296Z" fill="#011625"/>
</svg>
